M48
;DRILL file {KiCad (5.0.1)-rc2} date 13-Nov-18 07:48:11 PM
;FORMAT={-:-/ absolute / metric / decimal}
FMAT,2
METRIC,TZ
T1C2.200
T2C2.700
T3C3.200
%
G90
G05
M71
T1
X28.66Y-41.39
X41.39Y-151.33
X28.66Y-138.61
X151.34Y-138.61
X138.61Y-151.34
X138.62Y-28.66
X41.39Y-28.66
X151.34Y-41.39
T2
X135.Y-114.13
X135.Y-65.87
X68.96Y-110.95
X68.96Y-69.05
T3
X146.57Y-50.4
X33.44Y-50.4
X129.6Y-33.43
X129.59Y-146.57
X50.4Y-33.43
X77.5Y-35.
X102.5Y-145.
X77.5Y-145.
X146.56Y-129.6
X33.43Y-129.59
X102.5Y-35.
X50.4Y-146.56
T0
M30
