G04 #@! TF.GenerationSoftware,KiCad,Pcbnew,(5.0.1)-rc2*
G04 #@! TF.CreationDate,2018-11-13T19:48:18+01:00*
G04 #@! TF.ProjectId,agv-skladiscni-v5,6167762D736B6C61646973636E692D76,rev?*
G04 #@! TF.SameCoordinates,Original*
G04 #@! TF.FileFunction,Legend,Top*
G04 #@! TF.FilePolarity,Positive*
%FSLAX46Y46*%
G04 Gerber Fmt 4.6, Leading zero omitted, Abs format (unit mm)*
G04 Created by KiCad (PCBNEW (5.0.1)-rc2) date 13-Nov-18 07:48:18 PM*
%MOMM*%
%LPD*%
G01*
G04 APERTURE LIST*
%ADD10C,0.120000*%
%ADD11C,0.200000*%
%ADD12C,0.150000*%
%ADD13C,0.254000*%
G04 APERTURE END LIST*
D10*
G04 #@! TO.C,U11*
X84470000Y-152300000D02*
X84470000Y-155500000D01*
X84470000Y-155500000D02*
X84670000Y-155700000D01*
X84670000Y-155700000D02*
X86470000Y-155700000D01*
X86470000Y-155700000D02*
X86470000Y-152300000D01*
X86470000Y-152300000D02*
X84470000Y-152300000D01*
G04 #@! TO.C,U12*
X75470000Y-152300000D02*
X75470000Y-155500000D01*
X75470000Y-155500000D02*
X75670000Y-155700000D01*
X75670000Y-155700000D02*
X77470000Y-155700000D01*
X77470000Y-155700000D02*
X77470000Y-152300000D01*
X77470000Y-152300000D02*
X75470000Y-152300000D01*
G04 #@! TO.C,U15*
X66470000Y-152100000D02*
X66470000Y-155300000D01*
X66470000Y-155300000D02*
X66670000Y-155500000D01*
X66670000Y-155500000D02*
X68470000Y-155500000D01*
X68470000Y-155500000D02*
X68470000Y-152100000D01*
X68470000Y-152100000D02*
X66470000Y-152100000D01*
G04 #@! TO.C,U13*
X68470000Y-27500000D02*
X68470000Y-24300000D01*
X68470000Y-24300000D02*
X68270000Y-24100000D01*
X68270000Y-24100000D02*
X66470000Y-24100000D01*
X66470000Y-24100000D02*
X66470000Y-27500000D01*
X66470000Y-27500000D02*
X68470000Y-27500000D01*
G04 #@! TO.C,U14*
X59470000Y-27500000D02*
X59470000Y-24300000D01*
X59470000Y-24300000D02*
X59270000Y-24100000D01*
X59270000Y-24100000D02*
X57470000Y-24100000D01*
X57470000Y-24100000D02*
X57470000Y-27500000D01*
X57470000Y-27500000D02*
X59470000Y-27500000D01*
G04 #@! TO.C,U16*
X57470000Y-152300000D02*
X57470000Y-155500000D01*
X57470000Y-155500000D02*
X57670000Y-155700000D01*
X57670000Y-155700000D02*
X59470000Y-155700000D01*
X59470000Y-155700000D02*
X59470000Y-152300000D01*
X59470000Y-152300000D02*
X57470000Y-152300000D01*
G04 #@! TO.C,U10*
X77470000Y-27500000D02*
X77470000Y-24300000D01*
X77470000Y-24300000D02*
X77270000Y-24100000D01*
X77270000Y-24100000D02*
X75470000Y-24100000D01*
X75470000Y-24100000D02*
X75470000Y-27500000D01*
X75470000Y-27500000D02*
X77470000Y-27500000D01*
G04 #@! TO.C,U7*
X102470000Y-152300000D02*
X102470000Y-155500000D01*
X102470000Y-155500000D02*
X102670000Y-155700000D01*
X102670000Y-155700000D02*
X104470000Y-155700000D01*
X104470000Y-155700000D02*
X104470000Y-152300000D01*
X104470000Y-152300000D02*
X102470000Y-152300000D01*
G04 #@! TO.C,U8*
X93470000Y-152300000D02*
X93470000Y-155500000D01*
X93470000Y-155500000D02*
X93670000Y-155700000D01*
X93670000Y-155700000D02*
X95470000Y-155700000D01*
X95470000Y-155700000D02*
X95470000Y-152300000D01*
X95470000Y-152300000D02*
X93470000Y-152300000D01*
G04 #@! TO.C,U1*
X122470000Y-27500000D02*
X122470000Y-24300000D01*
X122470000Y-24300000D02*
X122270000Y-24100000D01*
X122270000Y-24100000D02*
X120470000Y-24100000D01*
X120470000Y-24100000D02*
X120470000Y-27500000D01*
X120470000Y-27500000D02*
X122470000Y-27500000D01*
G04 #@! TO.C,U9*
X86470000Y-27500000D02*
X86470000Y-24300000D01*
X86470000Y-24300000D02*
X86270000Y-24100000D01*
X86270000Y-24100000D02*
X84470000Y-24100000D01*
X84470000Y-24100000D02*
X84470000Y-27500000D01*
X84470000Y-27500000D02*
X86470000Y-27500000D01*
G04 #@! TO.C,U3*
X120470000Y-152300000D02*
X120470000Y-155500000D01*
X120470000Y-155500000D02*
X120670000Y-155700000D01*
X120670000Y-155700000D02*
X122470000Y-155700000D01*
X122470000Y-155700000D02*
X122470000Y-152300000D01*
X122470000Y-152300000D02*
X120470000Y-152300000D01*
G04 #@! TO.C,U4*
X111470000Y-152300000D02*
X111470000Y-155500000D01*
X111470000Y-155500000D02*
X111670000Y-155700000D01*
X111670000Y-155700000D02*
X113470000Y-155700000D01*
X113470000Y-155700000D02*
X113470000Y-152300000D01*
X113470000Y-152300000D02*
X111470000Y-152300000D01*
G04 #@! TO.C,U5*
X104470000Y-27500000D02*
X104470000Y-24300000D01*
X104470000Y-24300000D02*
X104270000Y-24100000D01*
X104270000Y-24100000D02*
X102470000Y-24100000D01*
X102470000Y-24100000D02*
X102470000Y-27500000D01*
X102470000Y-27500000D02*
X104470000Y-27500000D01*
G04 #@! TO.C,U2*
X113470000Y-27500000D02*
X113470000Y-24300000D01*
X113470000Y-24300000D02*
X113270000Y-24100000D01*
X113270000Y-24100000D02*
X111470000Y-24100000D01*
X111470000Y-24100000D02*
X111470000Y-27500000D01*
X111470000Y-27500000D02*
X113470000Y-27500000D01*
G04 #@! TO.C,U6*
X95470000Y-27500000D02*
X95470000Y-24300000D01*
X95470000Y-24300000D02*
X95270000Y-24100000D01*
X95270000Y-24100000D02*
X93470000Y-24100000D01*
X93470000Y-24100000D02*
X93470000Y-27500000D01*
X93470000Y-27500000D02*
X95470000Y-27500000D01*
G04 #@! TO.C,R26*
X64760000Y-146663748D02*
X64760000Y-147186252D01*
X66180000Y-146663748D02*
X66180000Y-147186252D01*
G04 #@! TO.C,R23*
X68290000Y-41713748D02*
X68290000Y-42236252D01*
X69710000Y-41713748D02*
X69710000Y-42236252D01*
G04 #@! TO.C,R27*
X59260000Y-33136252D02*
X59260000Y-32613748D01*
X60680000Y-33136252D02*
X60680000Y-32613748D01*
G04 #@! TO.C,R28*
X60680000Y-146613748D02*
X60680000Y-147136252D01*
X59260000Y-146613748D02*
X59260000Y-147136252D01*
G04 #@! TO.C,R22*
X42131252Y-81190000D02*
X41608748Y-81190000D01*
X42131252Y-82610000D02*
X41608748Y-82610000D01*
G04 #@! TO.C,R20*
X69790000Y-33151252D02*
X69790000Y-32628748D01*
X71210000Y-33151252D02*
X71210000Y-32628748D01*
G04 #@! TO.C,R25*
X64710000Y-33151252D02*
X64710000Y-32628748D01*
X66130000Y-33151252D02*
X66130000Y-32628748D01*
G04 #@! TO.C,R24*
X72680000Y-139161252D02*
X72680000Y-138638748D01*
X71260000Y-139161252D02*
X71260000Y-138638748D01*
G04 #@! TO.C,R30*
X90206252Y-61610000D02*
X89683748Y-61610000D01*
X90206252Y-60190000D02*
X89683748Y-60190000D01*
G04 #@! TO.C,R29*
X89206252Y-91610000D02*
X88683748Y-91610000D01*
X89206252Y-90190000D02*
X88683748Y-90190000D01*
G04 #@! TO.C,R21*
X69290000Y-146663748D02*
X69290000Y-147186252D01*
X70710000Y-146663748D02*
X70710000Y-147186252D01*
G04 #@! TO.C,Q2*
X91550000Y-51140000D02*
X90620000Y-51140000D01*
X88390000Y-51140000D02*
X89320000Y-51140000D01*
X88390000Y-51140000D02*
X88390000Y-53300000D01*
X91550000Y-51140000D02*
X91550000Y-52600000D01*
D11*
G04 #@! TO.C,IC2*
X93820000Y-67250000D02*
X93820000Y-68700000D01*
X88470000Y-69050000D02*
X93470000Y-69050000D01*
X88470000Y-72750000D02*
X88470000Y-69050000D01*
X93470000Y-72750000D02*
X88470000Y-72750000D01*
X93470000Y-69050000D02*
X93470000Y-72750000D01*
D10*
G04 #@! TO.C,R1*
X104760000Y-41638748D02*
X104760000Y-42161252D01*
X106180000Y-41638748D02*
X106180000Y-42161252D01*
G04 #@! TO.C,Q1*
X88390000Y-130660000D02*
X88390000Y-129200000D01*
X91550000Y-130660000D02*
X91550000Y-128500000D01*
X91550000Y-130660000D02*
X90620000Y-130660000D01*
X88390000Y-130660000D02*
X89320000Y-130660000D01*
D11*
G04 #@! TO.C,IC1*
X93545000Y-100425000D02*
X93545000Y-104125000D01*
X93545000Y-104125000D02*
X88545000Y-104125000D01*
X88545000Y-104125000D02*
X88545000Y-100425000D01*
X88545000Y-100425000D02*
X93545000Y-100425000D01*
X93895000Y-98625000D02*
X93895000Y-100075000D01*
D10*
G04 #@! TO.C,R6*
X113260000Y-146663748D02*
X113260000Y-147186252D01*
X114680000Y-146663748D02*
X114680000Y-147186252D01*
G04 #@! TO.C,R16*
X87290000Y-143713748D02*
X87290000Y-144236252D01*
X88710000Y-143713748D02*
X88710000Y-144236252D01*
G04 #@! TO.C,R15*
X87710000Y-35236252D02*
X87710000Y-34713748D01*
X86290000Y-35236252D02*
X86290000Y-34713748D01*
G04 #@! TO.C,R2*
X107260000Y-139186252D02*
X107260000Y-138663748D01*
X108680000Y-139186252D02*
X108680000Y-138663748D01*
G04 #@! TO.C,R17*
X41608748Y-87610000D02*
X42131252Y-87610000D01*
X41608748Y-86190000D02*
X42131252Y-86190000D01*
G04 #@! TO.C,R8*
X95290000Y-139236252D02*
X95290000Y-138713748D01*
X96710000Y-139236252D02*
X96710000Y-138713748D01*
G04 #@! TO.C,R18*
X41608748Y-91190000D02*
X42131252Y-91190000D01*
X41608748Y-92610000D02*
X42131252Y-92610000D01*
G04 #@! TO.C,R19*
X41608748Y-97610000D02*
X42131252Y-97610000D01*
X41608748Y-96190000D02*
X42131252Y-96190000D01*
G04 #@! TO.C,R14*
X83290000Y-139161252D02*
X83290000Y-138638748D01*
X84710000Y-139161252D02*
X84710000Y-138638748D01*
G04 #@! TO.C,R3*
X121180000Y-33066252D02*
X121180000Y-32543748D01*
X119760000Y-33066252D02*
X119760000Y-32543748D01*
G04 #@! TO.C,R9*
X110710000Y-33066252D02*
X110710000Y-32543748D01*
X109290000Y-33066252D02*
X109290000Y-32543748D01*
G04 #@! TO.C,R10*
X109710000Y-146713748D02*
X109710000Y-147236252D01*
X108290000Y-146713748D02*
X108290000Y-147236252D01*
G04 #@! TO.C,R12*
X91290000Y-143713748D02*
X91290000Y-144236252D01*
X92710000Y-143713748D02*
X92710000Y-144236252D01*
G04 #@! TO.C,R13*
X84710000Y-41613748D02*
X84710000Y-42136252D01*
X83290000Y-41613748D02*
X83290000Y-42136252D01*
G04 #@! TO.C,R4*
X120680000Y-146638748D02*
X120680000Y-147161252D01*
X119260000Y-146638748D02*
X119260000Y-147161252D01*
G04 #@! TO.C,R7*
X94760000Y-41638748D02*
X94760000Y-42161252D01*
X96180000Y-41638748D02*
X96180000Y-42161252D01*
G04 #@! TO.C,R11*
X92290000Y-35286252D02*
X92290000Y-34763748D01*
X93710000Y-35286252D02*
X93710000Y-34763748D01*
G04 #@! TO.C,R5*
X114210000Y-33091252D02*
X114210000Y-32568748D01*
X115630000Y-33091252D02*
X115630000Y-32568748D01*
G04 #@! TO.C,U11*
D12*
X84231904Y-155852380D02*
X84231904Y-156661904D01*
X84279523Y-156757142D01*
X84327142Y-156804761D01*
X84422380Y-156852380D01*
X84612857Y-156852380D01*
X84708095Y-156804761D01*
X84755714Y-156757142D01*
X84803333Y-156661904D01*
X84803333Y-155852380D01*
X85803333Y-156852380D02*
X85231904Y-156852380D01*
X85517619Y-156852380D02*
X85517619Y-155852380D01*
X85422380Y-155995238D01*
X85327142Y-156090476D01*
X85231904Y-156138095D01*
X86755714Y-156852380D02*
X86184285Y-156852380D01*
X86470000Y-156852380D02*
X86470000Y-155852380D01*
X86374761Y-155995238D01*
X86279523Y-156090476D01*
X86184285Y-156138095D01*
G04 #@! TO.C,U12*
X75231904Y-155852380D02*
X75231904Y-156661904D01*
X75279523Y-156757142D01*
X75327142Y-156804761D01*
X75422380Y-156852380D01*
X75612857Y-156852380D01*
X75708095Y-156804761D01*
X75755714Y-156757142D01*
X75803333Y-156661904D01*
X75803333Y-155852380D01*
X76803333Y-156852380D02*
X76231904Y-156852380D01*
X76517619Y-156852380D02*
X76517619Y-155852380D01*
X76422380Y-155995238D01*
X76327142Y-156090476D01*
X76231904Y-156138095D01*
X77184285Y-155947619D02*
X77231904Y-155900000D01*
X77327142Y-155852380D01*
X77565238Y-155852380D01*
X77660476Y-155900000D01*
X77708095Y-155947619D01*
X77755714Y-156042857D01*
X77755714Y-156138095D01*
X77708095Y-156280952D01*
X77136666Y-156852380D01*
X77755714Y-156852380D01*
G04 #@! TO.C,U15*
X66231904Y-155652380D02*
X66231904Y-156461904D01*
X66279523Y-156557142D01*
X66327142Y-156604761D01*
X66422380Y-156652380D01*
X66612857Y-156652380D01*
X66708095Y-156604761D01*
X66755714Y-156557142D01*
X66803333Y-156461904D01*
X66803333Y-155652380D01*
X67803333Y-156652380D02*
X67231904Y-156652380D01*
X67517619Y-156652380D02*
X67517619Y-155652380D01*
X67422380Y-155795238D01*
X67327142Y-155890476D01*
X67231904Y-155938095D01*
X68708095Y-155652380D02*
X68231904Y-155652380D01*
X68184285Y-156128571D01*
X68231904Y-156080952D01*
X68327142Y-156033333D01*
X68565238Y-156033333D01*
X68660476Y-156080952D01*
X68708095Y-156128571D01*
X68755714Y-156223809D01*
X68755714Y-156461904D01*
X68708095Y-156557142D01*
X68660476Y-156604761D01*
X68565238Y-156652380D01*
X68327142Y-156652380D01*
X68231904Y-156604761D01*
X68184285Y-156557142D01*
G04 #@! TO.C,U13*
X66231904Y-22852380D02*
X66231904Y-23661904D01*
X66279523Y-23757142D01*
X66327142Y-23804761D01*
X66422380Y-23852380D01*
X66612857Y-23852380D01*
X66708095Y-23804761D01*
X66755714Y-23757142D01*
X66803333Y-23661904D01*
X66803333Y-22852380D01*
X67803333Y-23852380D02*
X67231904Y-23852380D01*
X67517619Y-23852380D02*
X67517619Y-22852380D01*
X67422380Y-22995238D01*
X67327142Y-23090476D01*
X67231904Y-23138095D01*
X68136666Y-22852380D02*
X68755714Y-22852380D01*
X68422380Y-23233333D01*
X68565238Y-23233333D01*
X68660476Y-23280952D01*
X68708095Y-23328571D01*
X68755714Y-23423809D01*
X68755714Y-23661904D01*
X68708095Y-23757142D01*
X68660476Y-23804761D01*
X68565238Y-23852380D01*
X68279523Y-23852380D01*
X68184285Y-23804761D01*
X68136666Y-23757142D01*
G04 #@! TO.C,U14*
X57231904Y-22852380D02*
X57231904Y-23661904D01*
X57279523Y-23757142D01*
X57327142Y-23804761D01*
X57422380Y-23852380D01*
X57612857Y-23852380D01*
X57708095Y-23804761D01*
X57755714Y-23757142D01*
X57803333Y-23661904D01*
X57803333Y-22852380D01*
X58803333Y-23852380D02*
X58231904Y-23852380D01*
X58517619Y-23852380D02*
X58517619Y-22852380D01*
X58422380Y-22995238D01*
X58327142Y-23090476D01*
X58231904Y-23138095D01*
X59660476Y-23185714D02*
X59660476Y-23852380D01*
X59422380Y-22804761D02*
X59184285Y-23519047D01*
X59803333Y-23519047D01*
G04 #@! TO.C,U16*
X57231904Y-155852380D02*
X57231904Y-156661904D01*
X57279523Y-156757142D01*
X57327142Y-156804761D01*
X57422380Y-156852380D01*
X57612857Y-156852380D01*
X57708095Y-156804761D01*
X57755714Y-156757142D01*
X57803333Y-156661904D01*
X57803333Y-155852380D01*
X58803333Y-156852380D02*
X58231904Y-156852380D01*
X58517619Y-156852380D02*
X58517619Y-155852380D01*
X58422380Y-155995238D01*
X58327142Y-156090476D01*
X58231904Y-156138095D01*
X59660476Y-155852380D02*
X59470000Y-155852380D01*
X59374761Y-155900000D01*
X59327142Y-155947619D01*
X59231904Y-156090476D01*
X59184285Y-156280952D01*
X59184285Y-156661904D01*
X59231904Y-156757142D01*
X59279523Y-156804761D01*
X59374761Y-156852380D01*
X59565238Y-156852380D01*
X59660476Y-156804761D01*
X59708095Y-156757142D01*
X59755714Y-156661904D01*
X59755714Y-156423809D01*
X59708095Y-156328571D01*
X59660476Y-156280952D01*
X59565238Y-156233333D01*
X59374761Y-156233333D01*
X59279523Y-156280952D01*
X59231904Y-156328571D01*
X59184285Y-156423809D01*
G04 #@! TO.C,U10*
X75231904Y-22852380D02*
X75231904Y-23661904D01*
X75279523Y-23757142D01*
X75327142Y-23804761D01*
X75422380Y-23852380D01*
X75612857Y-23852380D01*
X75708095Y-23804761D01*
X75755714Y-23757142D01*
X75803333Y-23661904D01*
X75803333Y-22852380D01*
X76803333Y-23852380D02*
X76231904Y-23852380D01*
X76517619Y-23852380D02*
X76517619Y-22852380D01*
X76422380Y-22995238D01*
X76327142Y-23090476D01*
X76231904Y-23138095D01*
X77422380Y-22852380D02*
X77517619Y-22852380D01*
X77612857Y-22900000D01*
X77660476Y-22947619D01*
X77708095Y-23042857D01*
X77755714Y-23233333D01*
X77755714Y-23471428D01*
X77708095Y-23661904D01*
X77660476Y-23757142D01*
X77612857Y-23804761D01*
X77517619Y-23852380D01*
X77422380Y-23852380D01*
X77327142Y-23804761D01*
X77279523Y-23757142D01*
X77231904Y-23661904D01*
X77184285Y-23471428D01*
X77184285Y-23233333D01*
X77231904Y-23042857D01*
X77279523Y-22947619D01*
X77327142Y-22900000D01*
X77422380Y-22852380D01*
G04 #@! TO.C,U7*
X102708095Y-155852380D02*
X102708095Y-156661904D01*
X102755714Y-156757142D01*
X102803333Y-156804761D01*
X102898571Y-156852380D01*
X103089047Y-156852380D01*
X103184285Y-156804761D01*
X103231904Y-156757142D01*
X103279523Y-156661904D01*
X103279523Y-155852380D01*
X103660476Y-155852380D02*
X104327142Y-155852380D01*
X103898571Y-156852380D01*
G04 #@! TO.C,U8*
X93708095Y-155852380D02*
X93708095Y-156661904D01*
X93755714Y-156757142D01*
X93803333Y-156804761D01*
X93898571Y-156852380D01*
X94089047Y-156852380D01*
X94184285Y-156804761D01*
X94231904Y-156757142D01*
X94279523Y-156661904D01*
X94279523Y-155852380D01*
X94898571Y-156280952D02*
X94803333Y-156233333D01*
X94755714Y-156185714D01*
X94708095Y-156090476D01*
X94708095Y-156042857D01*
X94755714Y-155947619D01*
X94803333Y-155900000D01*
X94898571Y-155852380D01*
X95089047Y-155852380D01*
X95184285Y-155900000D01*
X95231904Y-155947619D01*
X95279523Y-156042857D01*
X95279523Y-156090476D01*
X95231904Y-156185714D01*
X95184285Y-156233333D01*
X95089047Y-156280952D01*
X94898571Y-156280952D01*
X94803333Y-156328571D01*
X94755714Y-156376190D01*
X94708095Y-156471428D01*
X94708095Y-156661904D01*
X94755714Y-156757142D01*
X94803333Y-156804761D01*
X94898571Y-156852380D01*
X95089047Y-156852380D01*
X95184285Y-156804761D01*
X95231904Y-156757142D01*
X95279523Y-156661904D01*
X95279523Y-156471428D01*
X95231904Y-156376190D01*
X95184285Y-156328571D01*
X95089047Y-156280952D01*
G04 #@! TO.C,U1*
X120708095Y-22852380D02*
X120708095Y-23661904D01*
X120755714Y-23757142D01*
X120803333Y-23804761D01*
X120898571Y-23852380D01*
X121089047Y-23852380D01*
X121184285Y-23804761D01*
X121231904Y-23757142D01*
X121279523Y-23661904D01*
X121279523Y-22852380D01*
X122279523Y-23852380D02*
X121708095Y-23852380D01*
X121993809Y-23852380D02*
X121993809Y-22852380D01*
X121898571Y-22995238D01*
X121803333Y-23090476D01*
X121708095Y-23138095D01*
G04 #@! TO.C,U9*
X84708095Y-22852380D02*
X84708095Y-23661904D01*
X84755714Y-23757142D01*
X84803333Y-23804761D01*
X84898571Y-23852380D01*
X85089047Y-23852380D01*
X85184285Y-23804761D01*
X85231904Y-23757142D01*
X85279523Y-23661904D01*
X85279523Y-22852380D01*
X85803333Y-23852380D02*
X85993809Y-23852380D01*
X86089047Y-23804761D01*
X86136666Y-23757142D01*
X86231904Y-23614285D01*
X86279523Y-23423809D01*
X86279523Y-23042857D01*
X86231904Y-22947619D01*
X86184285Y-22900000D01*
X86089047Y-22852380D01*
X85898571Y-22852380D01*
X85803333Y-22900000D01*
X85755714Y-22947619D01*
X85708095Y-23042857D01*
X85708095Y-23280952D01*
X85755714Y-23376190D01*
X85803333Y-23423809D01*
X85898571Y-23471428D01*
X86089047Y-23471428D01*
X86184285Y-23423809D01*
X86231904Y-23376190D01*
X86279523Y-23280952D01*
G04 #@! TO.C,U3*
X120708095Y-155852380D02*
X120708095Y-156661904D01*
X120755714Y-156757142D01*
X120803333Y-156804761D01*
X120898571Y-156852380D01*
X121089047Y-156852380D01*
X121184285Y-156804761D01*
X121231904Y-156757142D01*
X121279523Y-156661904D01*
X121279523Y-155852380D01*
X121660476Y-155852380D02*
X122279523Y-155852380D01*
X121946190Y-156233333D01*
X122089047Y-156233333D01*
X122184285Y-156280952D01*
X122231904Y-156328571D01*
X122279523Y-156423809D01*
X122279523Y-156661904D01*
X122231904Y-156757142D01*
X122184285Y-156804761D01*
X122089047Y-156852380D01*
X121803333Y-156852380D01*
X121708095Y-156804761D01*
X121660476Y-156757142D01*
G04 #@! TO.C,U4*
X111708095Y-155852380D02*
X111708095Y-156661904D01*
X111755714Y-156757142D01*
X111803333Y-156804761D01*
X111898571Y-156852380D01*
X112089047Y-156852380D01*
X112184285Y-156804761D01*
X112231904Y-156757142D01*
X112279523Y-156661904D01*
X112279523Y-155852380D01*
X113184285Y-156185714D02*
X113184285Y-156852380D01*
X112946190Y-155804761D02*
X112708095Y-156519047D01*
X113327142Y-156519047D01*
G04 #@! TO.C,U5*
X102708095Y-22852380D02*
X102708095Y-23661904D01*
X102755714Y-23757142D01*
X102803333Y-23804761D01*
X102898571Y-23852380D01*
X103089047Y-23852380D01*
X103184285Y-23804761D01*
X103231904Y-23757142D01*
X103279523Y-23661904D01*
X103279523Y-22852380D01*
X104231904Y-22852380D02*
X103755714Y-22852380D01*
X103708095Y-23328571D01*
X103755714Y-23280952D01*
X103850952Y-23233333D01*
X104089047Y-23233333D01*
X104184285Y-23280952D01*
X104231904Y-23328571D01*
X104279523Y-23423809D01*
X104279523Y-23661904D01*
X104231904Y-23757142D01*
X104184285Y-23804761D01*
X104089047Y-23852380D01*
X103850952Y-23852380D01*
X103755714Y-23804761D01*
X103708095Y-23757142D01*
G04 #@! TO.C,U2*
X111708095Y-22852380D02*
X111708095Y-23661904D01*
X111755714Y-23757142D01*
X111803333Y-23804761D01*
X111898571Y-23852380D01*
X112089047Y-23852380D01*
X112184285Y-23804761D01*
X112231904Y-23757142D01*
X112279523Y-23661904D01*
X112279523Y-22852380D01*
X112708095Y-22947619D02*
X112755714Y-22900000D01*
X112850952Y-22852380D01*
X113089047Y-22852380D01*
X113184285Y-22900000D01*
X113231904Y-22947619D01*
X113279523Y-23042857D01*
X113279523Y-23138095D01*
X113231904Y-23280952D01*
X112660476Y-23852380D01*
X113279523Y-23852380D01*
G04 #@! TO.C,U6*
X93708095Y-22852380D02*
X93708095Y-23661904D01*
X93755714Y-23757142D01*
X93803333Y-23804761D01*
X93898571Y-23852380D01*
X94089047Y-23852380D01*
X94184285Y-23804761D01*
X94231904Y-23757142D01*
X94279523Y-23661904D01*
X94279523Y-22852380D01*
X95184285Y-22852380D02*
X94993809Y-22852380D01*
X94898571Y-22900000D01*
X94850952Y-22947619D01*
X94755714Y-23090476D01*
X94708095Y-23280952D01*
X94708095Y-23661904D01*
X94755714Y-23757142D01*
X94803333Y-23804761D01*
X94898571Y-23852380D01*
X95089047Y-23852380D01*
X95184285Y-23804761D01*
X95231904Y-23757142D01*
X95279523Y-23661904D01*
X95279523Y-23423809D01*
X95231904Y-23328571D01*
X95184285Y-23280952D01*
X95089047Y-23233333D01*
X94898571Y-23233333D01*
X94803333Y-23280952D01*
X94755714Y-23328571D01*
X94708095Y-23423809D01*
G04 #@! TO.C,REF2*
X150292380Y-38642380D02*
X149959047Y-38166190D01*
X149720952Y-38642380D02*
X149720952Y-37642380D01*
X150101904Y-37642380D01*
X150197142Y-37690000D01*
X150244761Y-37737619D01*
X150292380Y-37832857D01*
X150292380Y-37975714D01*
X150244761Y-38070952D01*
X150197142Y-38118571D01*
X150101904Y-38166190D01*
X149720952Y-38166190D01*
X150720952Y-38118571D02*
X151054285Y-38118571D01*
X151197142Y-38642380D02*
X150720952Y-38642380D01*
X150720952Y-37642380D01*
X151197142Y-37642380D01*
X151959047Y-38118571D02*
X151625714Y-38118571D01*
X151625714Y-38642380D02*
X151625714Y-37642380D01*
X152101904Y-37642380D01*
X152435238Y-37737619D02*
X152482857Y-37690000D01*
X152578095Y-37642380D01*
X152816190Y-37642380D01*
X152911428Y-37690000D01*
X152959047Y-37737619D01*
X153006666Y-37832857D01*
X153006666Y-37928095D01*
X152959047Y-38070952D01*
X152387619Y-38642380D01*
X153006666Y-38642380D01*
G04 #@! TO.C,R26*
X67572380Y-147567857D02*
X67096190Y-147901190D01*
X67572380Y-148139285D02*
X66572380Y-148139285D01*
X66572380Y-147758333D01*
X66620000Y-147663095D01*
X66667619Y-147615476D01*
X66762857Y-147567857D01*
X66905714Y-147567857D01*
X67000952Y-147615476D01*
X67048571Y-147663095D01*
X67096190Y-147758333D01*
X67096190Y-148139285D01*
X66667619Y-147186904D02*
X66620000Y-147139285D01*
X66572380Y-147044047D01*
X66572380Y-146805952D01*
X66620000Y-146710714D01*
X66667619Y-146663095D01*
X66762857Y-146615476D01*
X66858095Y-146615476D01*
X67000952Y-146663095D01*
X67572380Y-147234523D01*
X67572380Y-146615476D01*
X66572380Y-145758333D02*
X66572380Y-145948809D01*
X66620000Y-146044047D01*
X66667619Y-146091666D01*
X66810476Y-146186904D01*
X67000952Y-146234523D01*
X67381904Y-146234523D01*
X67477142Y-146186904D01*
X67524761Y-146139285D01*
X67572380Y-146044047D01*
X67572380Y-145853571D01*
X67524761Y-145758333D01*
X67477142Y-145710714D01*
X67381904Y-145663095D01*
X67143809Y-145663095D01*
X67048571Y-145710714D01*
X67000952Y-145758333D01*
X66953333Y-145853571D01*
X66953333Y-146044047D01*
X67000952Y-146139285D01*
X67048571Y-146186904D01*
X67143809Y-146234523D01*
G04 #@! TO.C,R23*
X71102380Y-42617857D02*
X70626190Y-42951190D01*
X71102380Y-43189285D02*
X70102380Y-43189285D01*
X70102380Y-42808333D01*
X70150000Y-42713095D01*
X70197619Y-42665476D01*
X70292857Y-42617857D01*
X70435714Y-42617857D01*
X70530952Y-42665476D01*
X70578571Y-42713095D01*
X70626190Y-42808333D01*
X70626190Y-43189285D01*
X70197619Y-42236904D02*
X70150000Y-42189285D01*
X70102380Y-42094047D01*
X70102380Y-41855952D01*
X70150000Y-41760714D01*
X70197619Y-41713095D01*
X70292857Y-41665476D01*
X70388095Y-41665476D01*
X70530952Y-41713095D01*
X71102380Y-42284523D01*
X71102380Y-41665476D01*
X70102380Y-41332142D02*
X70102380Y-40713095D01*
X70483333Y-41046428D01*
X70483333Y-40903571D01*
X70530952Y-40808333D01*
X70578571Y-40760714D01*
X70673809Y-40713095D01*
X70911904Y-40713095D01*
X71007142Y-40760714D01*
X71054761Y-40808333D01*
X71102380Y-40903571D01*
X71102380Y-41189285D01*
X71054761Y-41284523D01*
X71007142Y-41332142D01*
G04 #@! TO.C,R27*
X58772380Y-33517857D02*
X58296190Y-33851190D01*
X58772380Y-34089285D02*
X57772380Y-34089285D01*
X57772380Y-33708333D01*
X57820000Y-33613095D01*
X57867619Y-33565476D01*
X57962857Y-33517857D01*
X58105714Y-33517857D01*
X58200952Y-33565476D01*
X58248571Y-33613095D01*
X58296190Y-33708333D01*
X58296190Y-34089285D01*
X57867619Y-33136904D02*
X57820000Y-33089285D01*
X57772380Y-32994047D01*
X57772380Y-32755952D01*
X57820000Y-32660714D01*
X57867619Y-32613095D01*
X57962857Y-32565476D01*
X58058095Y-32565476D01*
X58200952Y-32613095D01*
X58772380Y-33184523D01*
X58772380Y-32565476D01*
X57772380Y-32232142D02*
X57772380Y-31565476D01*
X58772380Y-31994047D01*
G04 #@! TO.C,R28*
X62072380Y-147517857D02*
X61596190Y-147851190D01*
X62072380Y-148089285D02*
X61072380Y-148089285D01*
X61072380Y-147708333D01*
X61120000Y-147613095D01*
X61167619Y-147565476D01*
X61262857Y-147517857D01*
X61405714Y-147517857D01*
X61500952Y-147565476D01*
X61548571Y-147613095D01*
X61596190Y-147708333D01*
X61596190Y-148089285D01*
X61167619Y-147136904D02*
X61120000Y-147089285D01*
X61072380Y-146994047D01*
X61072380Y-146755952D01*
X61120000Y-146660714D01*
X61167619Y-146613095D01*
X61262857Y-146565476D01*
X61358095Y-146565476D01*
X61500952Y-146613095D01*
X62072380Y-147184523D01*
X62072380Y-146565476D01*
X61500952Y-145994047D02*
X61453333Y-146089285D01*
X61405714Y-146136904D01*
X61310476Y-146184523D01*
X61262857Y-146184523D01*
X61167619Y-146136904D01*
X61120000Y-146089285D01*
X61072380Y-145994047D01*
X61072380Y-145803571D01*
X61120000Y-145708333D01*
X61167619Y-145660714D01*
X61262857Y-145613095D01*
X61310476Y-145613095D01*
X61405714Y-145660714D01*
X61453333Y-145708333D01*
X61500952Y-145803571D01*
X61500952Y-145994047D01*
X61548571Y-146089285D01*
X61596190Y-146136904D01*
X61691428Y-146184523D01*
X61881904Y-146184523D01*
X61977142Y-146136904D01*
X62024761Y-146089285D01*
X62072380Y-145994047D01*
X62072380Y-145803571D01*
X62024761Y-145708333D01*
X61977142Y-145660714D01*
X61881904Y-145613095D01*
X61691428Y-145613095D01*
X61596190Y-145660714D01*
X61548571Y-145708333D01*
X61500952Y-145803571D01*
G04 #@! TO.C,REF11*
X149816190Y-135862380D02*
X149482857Y-135386190D01*
X149244761Y-135862380D02*
X149244761Y-134862380D01*
X149625714Y-134862380D01*
X149720952Y-134910000D01*
X149768571Y-134957619D01*
X149816190Y-135052857D01*
X149816190Y-135195714D01*
X149768571Y-135290952D01*
X149720952Y-135338571D01*
X149625714Y-135386190D01*
X149244761Y-135386190D01*
X150244761Y-135338571D02*
X150578095Y-135338571D01*
X150720952Y-135862380D02*
X150244761Y-135862380D01*
X150244761Y-134862380D01*
X150720952Y-134862380D01*
X151482857Y-135338571D02*
X151149523Y-135338571D01*
X151149523Y-135862380D02*
X151149523Y-134862380D01*
X151625714Y-134862380D01*
X152530476Y-135862380D02*
X151959047Y-135862380D01*
X152244761Y-135862380D02*
X152244761Y-134862380D01*
X152149523Y-135005238D01*
X152054285Y-135100476D01*
X151959047Y-135148095D01*
X153482857Y-135862380D02*
X152911428Y-135862380D01*
X153197142Y-135862380D02*
X153197142Y-134862380D01*
X153101904Y-135005238D01*
X153006666Y-135100476D01*
X152911428Y-135148095D01*
G04 #@! TO.C,R22*
X41227142Y-84002380D02*
X40893809Y-83526190D01*
X40655714Y-84002380D02*
X40655714Y-83002380D01*
X41036666Y-83002380D01*
X41131904Y-83050000D01*
X41179523Y-83097619D01*
X41227142Y-83192857D01*
X41227142Y-83335714D01*
X41179523Y-83430952D01*
X41131904Y-83478571D01*
X41036666Y-83526190D01*
X40655714Y-83526190D01*
X41608095Y-83097619D02*
X41655714Y-83050000D01*
X41750952Y-83002380D01*
X41989047Y-83002380D01*
X42084285Y-83050000D01*
X42131904Y-83097619D01*
X42179523Y-83192857D01*
X42179523Y-83288095D01*
X42131904Y-83430952D01*
X41560476Y-84002380D01*
X42179523Y-84002380D01*
X42560476Y-83097619D02*
X42608095Y-83050000D01*
X42703333Y-83002380D01*
X42941428Y-83002380D01*
X43036666Y-83050000D01*
X43084285Y-83097619D01*
X43131904Y-83192857D01*
X43131904Y-83288095D01*
X43084285Y-83430952D01*
X42512857Y-84002380D01*
X43131904Y-84002380D01*
G04 #@! TO.C,R20*
X69302380Y-33532857D02*
X68826190Y-33866190D01*
X69302380Y-34104285D02*
X68302380Y-34104285D01*
X68302380Y-33723333D01*
X68350000Y-33628095D01*
X68397619Y-33580476D01*
X68492857Y-33532857D01*
X68635714Y-33532857D01*
X68730952Y-33580476D01*
X68778571Y-33628095D01*
X68826190Y-33723333D01*
X68826190Y-34104285D01*
X68397619Y-33151904D02*
X68350000Y-33104285D01*
X68302380Y-33009047D01*
X68302380Y-32770952D01*
X68350000Y-32675714D01*
X68397619Y-32628095D01*
X68492857Y-32580476D01*
X68588095Y-32580476D01*
X68730952Y-32628095D01*
X69302380Y-33199523D01*
X69302380Y-32580476D01*
X68302380Y-31961428D02*
X68302380Y-31866190D01*
X68350000Y-31770952D01*
X68397619Y-31723333D01*
X68492857Y-31675714D01*
X68683333Y-31628095D01*
X68921428Y-31628095D01*
X69111904Y-31675714D01*
X69207142Y-31723333D01*
X69254761Y-31770952D01*
X69302380Y-31866190D01*
X69302380Y-31961428D01*
X69254761Y-32056666D01*
X69207142Y-32104285D01*
X69111904Y-32151904D01*
X68921428Y-32199523D01*
X68683333Y-32199523D01*
X68492857Y-32151904D01*
X68397619Y-32104285D01*
X68350000Y-32056666D01*
X68302380Y-31961428D01*
G04 #@! TO.C,R25*
X64222380Y-33532857D02*
X63746190Y-33866190D01*
X64222380Y-34104285D02*
X63222380Y-34104285D01*
X63222380Y-33723333D01*
X63270000Y-33628095D01*
X63317619Y-33580476D01*
X63412857Y-33532857D01*
X63555714Y-33532857D01*
X63650952Y-33580476D01*
X63698571Y-33628095D01*
X63746190Y-33723333D01*
X63746190Y-34104285D01*
X63317619Y-33151904D02*
X63270000Y-33104285D01*
X63222380Y-33009047D01*
X63222380Y-32770952D01*
X63270000Y-32675714D01*
X63317619Y-32628095D01*
X63412857Y-32580476D01*
X63508095Y-32580476D01*
X63650952Y-32628095D01*
X64222380Y-33199523D01*
X64222380Y-32580476D01*
X63222380Y-31675714D02*
X63222380Y-32151904D01*
X63698571Y-32199523D01*
X63650952Y-32151904D01*
X63603333Y-32056666D01*
X63603333Y-31818571D01*
X63650952Y-31723333D01*
X63698571Y-31675714D01*
X63793809Y-31628095D01*
X64031904Y-31628095D01*
X64127142Y-31675714D01*
X64174761Y-31723333D01*
X64222380Y-31818571D01*
X64222380Y-32056666D01*
X64174761Y-32151904D01*
X64127142Y-32199523D01*
G04 #@! TO.C,R24*
X70772380Y-139542857D02*
X70296190Y-139876190D01*
X70772380Y-140114285D02*
X69772380Y-140114285D01*
X69772380Y-139733333D01*
X69820000Y-139638095D01*
X69867619Y-139590476D01*
X69962857Y-139542857D01*
X70105714Y-139542857D01*
X70200952Y-139590476D01*
X70248571Y-139638095D01*
X70296190Y-139733333D01*
X70296190Y-140114285D01*
X69867619Y-139161904D02*
X69820000Y-139114285D01*
X69772380Y-139019047D01*
X69772380Y-138780952D01*
X69820000Y-138685714D01*
X69867619Y-138638095D01*
X69962857Y-138590476D01*
X70058095Y-138590476D01*
X70200952Y-138638095D01*
X70772380Y-139209523D01*
X70772380Y-138590476D01*
X70105714Y-137733333D02*
X70772380Y-137733333D01*
X69724761Y-137971428D02*
X70439047Y-138209523D01*
X70439047Y-137590476D01*
G04 #@! TO.C,R30*
X89302142Y-63002380D02*
X88968809Y-62526190D01*
X88730714Y-63002380D02*
X88730714Y-62002380D01*
X89111666Y-62002380D01*
X89206904Y-62050000D01*
X89254523Y-62097619D01*
X89302142Y-62192857D01*
X89302142Y-62335714D01*
X89254523Y-62430952D01*
X89206904Y-62478571D01*
X89111666Y-62526190D01*
X88730714Y-62526190D01*
X89635476Y-62002380D02*
X90254523Y-62002380D01*
X89921190Y-62383333D01*
X90064047Y-62383333D01*
X90159285Y-62430952D01*
X90206904Y-62478571D01*
X90254523Y-62573809D01*
X90254523Y-62811904D01*
X90206904Y-62907142D01*
X90159285Y-62954761D01*
X90064047Y-63002380D01*
X89778333Y-63002380D01*
X89683095Y-62954761D01*
X89635476Y-62907142D01*
X90873571Y-62002380D02*
X90968809Y-62002380D01*
X91064047Y-62050000D01*
X91111666Y-62097619D01*
X91159285Y-62192857D01*
X91206904Y-62383333D01*
X91206904Y-62621428D01*
X91159285Y-62811904D01*
X91111666Y-62907142D01*
X91064047Y-62954761D01*
X90968809Y-63002380D01*
X90873571Y-63002380D01*
X90778333Y-62954761D01*
X90730714Y-62907142D01*
X90683095Y-62811904D01*
X90635476Y-62621428D01*
X90635476Y-62383333D01*
X90683095Y-62192857D01*
X90730714Y-62097619D01*
X90778333Y-62050000D01*
X90873571Y-62002380D01*
G04 #@! TO.C,REF1*
X137572380Y-25912380D02*
X137239047Y-25436190D01*
X137000952Y-25912380D02*
X137000952Y-24912380D01*
X137381904Y-24912380D01*
X137477142Y-24960000D01*
X137524761Y-25007619D01*
X137572380Y-25102857D01*
X137572380Y-25245714D01*
X137524761Y-25340952D01*
X137477142Y-25388571D01*
X137381904Y-25436190D01*
X137000952Y-25436190D01*
X138000952Y-25388571D02*
X138334285Y-25388571D01*
X138477142Y-25912380D02*
X138000952Y-25912380D01*
X138000952Y-24912380D01*
X138477142Y-24912380D01*
X139239047Y-25388571D02*
X138905714Y-25388571D01*
X138905714Y-25912380D02*
X138905714Y-24912380D01*
X139381904Y-24912380D01*
X140286666Y-25912380D02*
X139715238Y-25912380D01*
X140000952Y-25912380D02*
X140000952Y-24912380D01*
X139905714Y-25055238D01*
X139810476Y-25150476D01*
X139715238Y-25198095D01*
G04 #@! TO.C,R29*
X88302142Y-93002380D02*
X87968809Y-92526190D01*
X87730714Y-93002380D02*
X87730714Y-92002380D01*
X88111666Y-92002380D01*
X88206904Y-92050000D01*
X88254523Y-92097619D01*
X88302142Y-92192857D01*
X88302142Y-92335714D01*
X88254523Y-92430952D01*
X88206904Y-92478571D01*
X88111666Y-92526190D01*
X87730714Y-92526190D01*
X88683095Y-92097619D02*
X88730714Y-92050000D01*
X88825952Y-92002380D01*
X89064047Y-92002380D01*
X89159285Y-92050000D01*
X89206904Y-92097619D01*
X89254523Y-92192857D01*
X89254523Y-92288095D01*
X89206904Y-92430952D01*
X88635476Y-93002380D01*
X89254523Y-93002380D01*
X89730714Y-93002380D02*
X89921190Y-93002380D01*
X90016428Y-92954761D01*
X90064047Y-92907142D01*
X90159285Y-92764285D01*
X90206904Y-92573809D01*
X90206904Y-92192857D01*
X90159285Y-92097619D01*
X90111666Y-92050000D01*
X90016428Y-92002380D01*
X89825952Y-92002380D01*
X89730714Y-92050000D01*
X89683095Y-92097619D01*
X89635476Y-92192857D01*
X89635476Y-92430952D01*
X89683095Y-92526190D01*
X89730714Y-92573809D01*
X89825952Y-92621428D01*
X90016428Y-92621428D01*
X90111666Y-92573809D01*
X90159285Y-92526190D01*
X90206904Y-92430952D01*
G04 #@! TO.C,R21*
X72102380Y-147567857D02*
X71626190Y-147901190D01*
X72102380Y-148139285D02*
X71102380Y-148139285D01*
X71102380Y-147758333D01*
X71150000Y-147663095D01*
X71197619Y-147615476D01*
X71292857Y-147567857D01*
X71435714Y-147567857D01*
X71530952Y-147615476D01*
X71578571Y-147663095D01*
X71626190Y-147758333D01*
X71626190Y-148139285D01*
X71197619Y-147186904D02*
X71150000Y-147139285D01*
X71102380Y-147044047D01*
X71102380Y-146805952D01*
X71150000Y-146710714D01*
X71197619Y-146663095D01*
X71292857Y-146615476D01*
X71388095Y-146615476D01*
X71530952Y-146663095D01*
X72102380Y-147234523D01*
X72102380Y-146615476D01*
X72102380Y-145663095D02*
X72102380Y-146234523D01*
X72102380Y-145948809D02*
X71102380Y-145948809D01*
X71245238Y-146044047D01*
X71340476Y-146139285D01*
X71388095Y-146234523D01*
G04 #@! TO.C,REF15*
X27136190Y-135862380D02*
X26802857Y-135386190D01*
X26564761Y-135862380D02*
X26564761Y-134862380D01*
X26945714Y-134862380D01*
X27040952Y-134910000D01*
X27088571Y-134957619D01*
X27136190Y-135052857D01*
X27136190Y-135195714D01*
X27088571Y-135290952D01*
X27040952Y-135338571D01*
X26945714Y-135386190D01*
X26564761Y-135386190D01*
X27564761Y-135338571D02*
X27898095Y-135338571D01*
X28040952Y-135862380D02*
X27564761Y-135862380D01*
X27564761Y-134862380D01*
X28040952Y-134862380D01*
X28802857Y-135338571D02*
X28469523Y-135338571D01*
X28469523Y-135862380D02*
X28469523Y-134862380D01*
X28945714Y-134862380D01*
X29850476Y-135862380D02*
X29279047Y-135862380D01*
X29564761Y-135862380D02*
X29564761Y-134862380D01*
X29469523Y-135005238D01*
X29374285Y-135100476D01*
X29279047Y-135148095D01*
X30755238Y-134862380D02*
X30279047Y-134862380D01*
X30231428Y-135338571D01*
X30279047Y-135290952D01*
X30374285Y-135243333D01*
X30612380Y-135243333D01*
X30707619Y-135290952D01*
X30755238Y-135338571D01*
X30802857Y-135433809D01*
X30802857Y-135671904D01*
X30755238Y-135767142D01*
X30707619Y-135814761D01*
X30612380Y-135862380D01*
X30374285Y-135862380D01*
X30279047Y-135814761D01*
X30231428Y-135767142D01*
G04 #@! TO.C,REF14*
X39866190Y-148582380D02*
X39532857Y-148106190D01*
X39294761Y-148582380D02*
X39294761Y-147582380D01*
X39675714Y-147582380D01*
X39770952Y-147630000D01*
X39818571Y-147677619D01*
X39866190Y-147772857D01*
X39866190Y-147915714D01*
X39818571Y-148010952D01*
X39770952Y-148058571D01*
X39675714Y-148106190D01*
X39294761Y-148106190D01*
X40294761Y-148058571D02*
X40628095Y-148058571D01*
X40770952Y-148582380D02*
X40294761Y-148582380D01*
X40294761Y-147582380D01*
X40770952Y-147582380D01*
X41532857Y-148058571D02*
X41199523Y-148058571D01*
X41199523Y-148582380D02*
X41199523Y-147582380D01*
X41675714Y-147582380D01*
X42580476Y-148582380D02*
X42009047Y-148582380D01*
X42294761Y-148582380D02*
X42294761Y-147582380D01*
X42199523Y-147725238D01*
X42104285Y-147820476D01*
X42009047Y-147868095D01*
X43437619Y-147915714D02*
X43437619Y-148582380D01*
X43199523Y-147534761D02*
X42961428Y-148249047D01*
X43580476Y-148249047D01*
G04 #@! TO.C,REF16*
X31906190Y-125842380D02*
X31572857Y-125366190D01*
X31334761Y-125842380D02*
X31334761Y-124842380D01*
X31715714Y-124842380D01*
X31810952Y-124890000D01*
X31858571Y-124937619D01*
X31906190Y-125032857D01*
X31906190Y-125175714D01*
X31858571Y-125270952D01*
X31810952Y-125318571D01*
X31715714Y-125366190D01*
X31334761Y-125366190D01*
X32334761Y-125318571D02*
X32668095Y-125318571D01*
X32810952Y-125842380D02*
X32334761Y-125842380D01*
X32334761Y-124842380D01*
X32810952Y-124842380D01*
X33572857Y-125318571D02*
X33239523Y-125318571D01*
X33239523Y-125842380D02*
X33239523Y-124842380D01*
X33715714Y-124842380D01*
X34620476Y-125842380D02*
X34049047Y-125842380D01*
X34334761Y-125842380D02*
X34334761Y-124842380D01*
X34239523Y-124985238D01*
X34144285Y-125080476D01*
X34049047Y-125128095D01*
X35477619Y-124842380D02*
X35287142Y-124842380D01*
X35191904Y-124890000D01*
X35144285Y-124937619D01*
X35049047Y-125080476D01*
X35001428Y-125270952D01*
X35001428Y-125651904D01*
X35049047Y-125747142D01*
X35096666Y-125794761D01*
X35191904Y-125842380D01*
X35382380Y-125842380D01*
X35477619Y-125794761D01*
X35525238Y-125747142D01*
X35572857Y-125651904D01*
X35572857Y-125413809D01*
X35525238Y-125318571D01*
X35477619Y-125270952D01*
X35382380Y-125223333D01*
X35191904Y-125223333D01*
X35096666Y-125270952D01*
X35049047Y-125318571D01*
X35001428Y-125413809D01*
G04 #@! TO.C,REF9*
X145512380Y-125852380D02*
X145179047Y-125376190D01*
X144940952Y-125852380D02*
X144940952Y-124852380D01*
X145321904Y-124852380D01*
X145417142Y-124900000D01*
X145464761Y-124947619D01*
X145512380Y-125042857D01*
X145512380Y-125185714D01*
X145464761Y-125280952D01*
X145417142Y-125328571D01*
X145321904Y-125376190D01*
X144940952Y-125376190D01*
X145940952Y-125328571D02*
X146274285Y-125328571D01*
X146417142Y-125852380D02*
X145940952Y-125852380D01*
X145940952Y-124852380D01*
X146417142Y-124852380D01*
X147179047Y-125328571D02*
X146845714Y-125328571D01*
X146845714Y-125852380D02*
X146845714Y-124852380D01*
X147321904Y-124852380D01*
X147750476Y-125852380D02*
X147940952Y-125852380D01*
X148036190Y-125804761D01*
X148083809Y-125757142D01*
X148179047Y-125614285D01*
X148226666Y-125423809D01*
X148226666Y-125042857D01*
X148179047Y-124947619D01*
X148131428Y-124900000D01*
X148036190Y-124852380D01*
X147845714Y-124852380D01*
X147750476Y-124900000D01*
X147702857Y-124947619D01*
X147655238Y-125042857D01*
X147655238Y-125280952D01*
X147702857Y-125376190D01*
X147750476Y-125423809D01*
X147845714Y-125471428D01*
X148036190Y-125471428D01*
X148131428Y-125423809D01*
X148179047Y-125376190D01*
X148226666Y-125280952D01*
G04 #@! TO.C,REF20 *
X39485238Y-25912380D02*
X39151904Y-25436190D01*
X38913809Y-25912380D02*
X38913809Y-24912380D01*
X39294761Y-24912380D01*
X39390000Y-24960000D01*
X39437619Y-25007619D01*
X39485238Y-25102857D01*
X39485238Y-25245714D01*
X39437619Y-25340952D01*
X39390000Y-25388571D01*
X39294761Y-25436190D01*
X38913809Y-25436190D01*
X39913809Y-25388571D02*
X40247142Y-25388571D01*
X40390000Y-25912380D02*
X39913809Y-25912380D01*
X39913809Y-24912380D01*
X40390000Y-24912380D01*
X41151904Y-25388571D02*
X40818571Y-25388571D01*
X40818571Y-25912380D02*
X40818571Y-24912380D01*
X41294761Y-24912380D01*
X41628095Y-25007619D02*
X41675714Y-24960000D01*
X41770952Y-24912380D01*
X42009047Y-24912380D01*
X42104285Y-24960000D01*
X42151904Y-25007619D01*
X42199523Y-25102857D01*
X42199523Y-25198095D01*
X42151904Y-25340952D01*
X41580476Y-25912380D01*
X42199523Y-25912380D01*
X42818571Y-24912380D02*
X42913809Y-24912380D01*
X43009047Y-24960000D01*
X43056666Y-25007619D01*
X43104285Y-25102857D01*
X43151904Y-25293333D01*
X43151904Y-25531428D01*
X43104285Y-25721904D01*
X43056666Y-25817142D01*
X43009047Y-25864761D01*
X42913809Y-25912380D01*
X42818571Y-25912380D01*
X42723333Y-25864761D01*
X42675714Y-25817142D01*
X42628095Y-25721904D01*
X42580476Y-25531428D01*
X42580476Y-25293333D01*
X42628095Y-25102857D01*
X42675714Y-25007619D01*
X42723333Y-24960000D01*
X42818571Y-24912380D01*
G04 #@! TO.C,REF13*
X48876190Y-142812380D02*
X48542857Y-142336190D01*
X48304761Y-142812380D02*
X48304761Y-141812380D01*
X48685714Y-141812380D01*
X48780952Y-141860000D01*
X48828571Y-141907619D01*
X48876190Y-142002857D01*
X48876190Y-142145714D01*
X48828571Y-142240952D01*
X48780952Y-142288571D01*
X48685714Y-142336190D01*
X48304761Y-142336190D01*
X49304761Y-142288571D02*
X49638095Y-142288571D01*
X49780952Y-142812380D02*
X49304761Y-142812380D01*
X49304761Y-141812380D01*
X49780952Y-141812380D01*
X50542857Y-142288571D02*
X50209523Y-142288571D01*
X50209523Y-142812380D02*
X50209523Y-141812380D01*
X50685714Y-141812380D01*
X51590476Y-142812380D02*
X51019047Y-142812380D01*
X51304761Y-142812380D02*
X51304761Y-141812380D01*
X51209523Y-141955238D01*
X51114285Y-142050476D01*
X51019047Y-142098095D01*
X51923809Y-141812380D02*
X52542857Y-141812380D01*
X52209523Y-142193333D01*
X52352380Y-142193333D01*
X52447619Y-142240952D01*
X52495238Y-142288571D01*
X52542857Y-142383809D01*
X52542857Y-142621904D01*
X52495238Y-142717142D01*
X52447619Y-142764761D01*
X52352380Y-142812380D01*
X52066666Y-142812380D01*
X51971428Y-142764761D01*
X51923809Y-142717142D01*
G04 #@! TO.C,REF10*
X128066190Y-142822380D02*
X127732857Y-142346190D01*
X127494761Y-142822380D02*
X127494761Y-141822380D01*
X127875714Y-141822380D01*
X127970952Y-141870000D01*
X128018571Y-141917619D01*
X128066190Y-142012857D01*
X128066190Y-142155714D01*
X128018571Y-142250952D01*
X127970952Y-142298571D01*
X127875714Y-142346190D01*
X127494761Y-142346190D01*
X128494761Y-142298571D02*
X128828095Y-142298571D01*
X128970952Y-142822380D02*
X128494761Y-142822380D01*
X128494761Y-141822380D01*
X128970952Y-141822380D01*
X129732857Y-142298571D02*
X129399523Y-142298571D01*
X129399523Y-142822380D02*
X129399523Y-141822380D01*
X129875714Y-141822380D01*
X130780476Y-142822380D02*
X130209047Y-142822380D01*
X130494761Y-142822380D02*
X130494761Y-141822380D01*
X130399523Y-141965238D01*
X130304285Y-142060476D01*
X130209047Y-142108095D01*
X131399523Y-141822380D02*
X131494761Y-141822380D01*
X131590000Y-141870000D01*
X131637619Y-141917619D01*
X131685238Y-142012857D01*
X131732857Y-142203333D01*
X131732857Y-142441428D01*
X131685238Y-142631904D01*
X131637619Y-142727142D01*
X131590000Y-142774761D01*
X131494761Y-142822380D01*
X131399523Y-142822380D01*
X131304285Y-142774761D01*
X131256666Y-142727142D01*
X131209047Y-142631904D01*
X131161428Y-142441428D01*
X131161428Y-142203333D01*
X131209047Y-142012857D01*
X131256666Y-141917619D01*
X131304285Y-141870000D01*
X131399523Y-141822380D01*
G04 #@! TO.C,REF4*
X145522380Y-46652380D02*
X145189047Y-46176190D01*
X144950952Y-46652380D02*
X144950952Y-45652380D01*
X145331904Y-45652380D01*
X145427142Y-45700000D01*
X145474761Y-45747619D01*
X145522380Y-45842857D01*
X145522380Y-45985714D01*
X145474761Y-46080952D01*
X145427142Y-46128571D01*
X145331904Y-46176190D01*
X144950952Y-46176190D01*
X145950952Y-46128571D02*
X146284285Y-46128571D01*
X146427142Y-46652380D02*
X145950952Y-46652380D01*
X145950952Y-45652380D01*
X146427142Y-45652380D01*
X147189047Y-46128571D02*
X146855714Y-46128571D01*
X146855714Y-46652380D02*
X146855714Y-45652380D01*
X147331904Y-45652380D01*
X148141428Y-45985714D02*
X148141428Y-46652380D01*
X147903333Y-45604761D02*
X147665238Y-46319047D01*
X148284285Y-46319047D01*
G04 #@! TO.C,REF17*
X27136190Y-38642380D02*
X26802857Y-38166190D01*
X26564761Y-38642380D02*
X26564761Y-37642380D01*
X26945714Y-37642380D01*
X27040952Y-37690000D01*
X27088571Y-37737619D01*
X27136190Y-37832857D01*
X27136190Y-37975714D01*
X27088571Y-38070952D01*
X27040952Y-38118571D01*
X26945714Y-38166190D01*
X26564761Y-38166190D01*
X27564761Y-38118571D02*
X27898095Y-38118571D01*
X28040952Y-38642380D02*
X27564761Y-38642380D01*
X27564761Y-37642380D01*
X28040952Y-37642380D01*
X28802857Y-38118571D02*
X28469523Y-38118571D01*
X28469523Y-38642380D02*
X28469523Y-37642380D01*
X28945714Y-37642380D01*
X29850476Y-38642380D02*
X29279047Y-38642380D01*
X29564761Y-38642380D02*
X29564761Y-37642380D01*
X29469523Y-37785238D01*
X29374285Y-37880476D01*
X29279047Y-37928095D01*
X30183809Y-37642380D02*
X30850476Y-37642380D01*
X30421904Y-38642380D01*
G04 #@! TO.C,REF18*
X31916190Y-46652380D02*
X31582857Y-46176190D01*
X31344761Y-46652380D02*
X31344761Y-45652380D01*
X31725714Y-45652380D01*
X31820952Y-45700000D01*
X31868571Y-45747619D01*
X31916190Y-45842857D01*
X31916190Y-45985714D01*
X31868571Y-46080952D01*
X31820952Y-46128571D01*
X31725714Y-46176190D01*
X31344761Y-46176190D01*
X32344761Y-46128571D02*
X32678095Y-46128571D01*
X32820952Y-46652380D02*
X32344761Y-46652380D01*
X32344761Y-45652380D01*
X32820952Y-45652380D01*
X33582857Y-46128571D02*
X33249523Y-46128571D01*
X33249523Y-46652380D02*
X33249523Y-45652380D01*
X33725714Y-45652380D01*
X34630476Y-46652380D02*
X34059047Y-46652380D01*
X34344761Y-46652380D02*
X34344761Y-45652380D01*
X34249523Y-45795238D01*
X34154285Y-45890476D01*
X34059047Y-45938095D01*
X35201904Y-46080952D02*
X35106666Y-46033333D01*
X35059047Y-45985714D01*
X35011428Y-45890476D01*
X35011428Y-45842857D01*
X35059047Y-45747619D01*
X35106666Y-45700000D01*
X35201904Y-45652380D01*
X35392380Y-45652380D01*
X35487619Y-45700000D01*
X35535238Y-45747619D01*
X35582857Y-45842857D01*
X35582857Y-45890476D01*
X35535238Y-45985714D01*
X35487619Y-46033333D01*
X35392380Y-46080952D01*
X35201904Y-46080952D01*
X35106666Y-46128571D01*
X35059047Y-46176190D01*
X35011428Y-46271428D01*
X35011428Y-46461904D01*
X35059047Y-46557142D01*
X35106666Y-46604761D01*
X35201904Y-46652380D01*
X35392380Y-46652380D01*
X35487619Y-46604761D01*
X35535238Y-46557142D01*
X35582857Y-46461904D01*
X35582857Y-46271428D01*
X35535238Y-46176190D01*
X35487619Y-46128571D01*
X35392380Y-46080952D01*
G04 #@! TO.C,REF3*
X128552380Y-29682380D02*
X128219047Y-29206190D01*
X127980952Y-29682380D02*
X127980952Y-28682380D01*
X128361904Y-28682380D01*
X128457142Y-28730000D01*
X128504761Y-28777619D01*
X128552380Y-28872857D01*
X128552380Y-29015714D01*
X128504761Y-29110952D01*
X128457142Y-29158571D01*
X128361904Y-29206190D01*
X127980952Y-29206190D01*
X128980952Y-29158571D02*
X129314285Y-29158571D01*
X129457142Y-29682380D02*
X128980952Y-29682380D01*
X128980952Y-28682380D01*
X129457142Y-28682380D01*
X130219047Y-29158571D02*
X129885714Y-29158571D01*
X129885714Y-29682380D02*
X129885714Y-28682380D01*
X130361904Y-28682380D01*
X130647619Y-28682380D02*
X131266666Y-28682380D01*
X130933333Y-29063333D01*
X131076190Y-29063333D01*
X131171428Y-29110952D01*
X131219047Y-29158571D01*
X131266666Y-29253809D01*
X131266666Y-29491904D01*
X131219047Y-29587142D01*
X131171428Y-29634761D01*
X131076190Y-29682380D01*
X130790476Y-29682380D01*
X130695238Y-29634761D01*
X130647619Y-29587142D01*
G04 #@! TO.C,REF19*
X48876190Y-29682380D02*
X48542857Y-29206190D01*
X48304761Y-29682380D02*
X48304761Y-28682380D01*
X48685714Y-28682380D01*
X48780952Y-28730000D01*
X48828571Y-28777619D01*
X48876190Y-28872857D01*
X48876190Y-29015714D01*
X48828571Y-29110952D01*
X48780952Y-29158571D01*
X48685714Y-29206190D01*
X48304761Y-29206190D01*
X49304761Y-29158571D02*
X49638095Y-29158571D01*
X49780952Y-29682380D02*
X49304761Y-29682380D01*
X49304761Y-28682380D01*
X49780952Y-28682380D01*
X50542857Y-29158571D02*
X50209523Y-29158571D01*
X50209523Y-29682380D02*
X50209523Y-28682380D01*
X50685714Y-28682380D01*
X51590476Y-29682380D02*
X51019047Y-29682380D01*
X51304761Y-29682380D02*
X51304761Y-28682380D01*
X51209523Y-28825238D01*
X51114285Y-28920476D01*
X51019047Y-28968095D01*
X52066666Y-29682380D02*
X52257142Y-29682380D01*
X52352380Y-29634761D01*
X52400000Y-29587142D01*
X52495238Y-29444285D01*
X52542857Y-29253809D01*
X52542857Y-28872857D01*
X52495238Y-28777619D01*
X52447619Y-28730000D01*
X52352380Y-28682380D01*
X52161904Y-28682380D01*
X52066666Y-28730000D01*
X52019047Y-28777619D01*
X51971428Y-28872857D01*
X51971428Y-29110952D01*
X52019047Y-29206190D01*
X52066666Y-29253809D01*
X52161904Y-29301428D01*
X52352380Y-29301428D01*
X52447619Y-29253809D01*
X52495238Y-29206190D01*
X52542857Y-29110952D01*
G04 #@! TO.C,REF12*
X137086190Y-148592380D02*
X136752857Y-148116190D01*
X136514761Y-148592380D02*
X136514761Y-147592380D01*
X136895714Y-147592380D01*
X136990952Y-147640000D01*
X137038571Y-147687619D01*
X137086190Y-147782857D01*
X137086190Y-147925714D01*
X137038571Y-148020952D01*
X136990952Y-148068571D01*
X136895714Y-148116190D01*
X136514761Y-148116190D01*
X137514761Y-148068571D02*
X137848095Y-148068571D01*
X137990952Y-148592380D02*
X137514761Y-148592380D01*
X137514761Y-147592380D01*
X137990952Y-147592380D01*
X138752857Y-148068571D02*
X138419523Y-148068571D01*
X138419523Y-148592380D02*
X138419523Y-147592380D01*
X138895714Y-147592380D01*
X139800476Y-148592380D02*
X139229047Y-148592380D01*
X139514761Y-148592380D02*
X139514761Y-147592380D01*
X139419523Y-147735238D01*
X139324285Y-147830476D01*
X139229047Y-147878095D01*
X140181428Y-147687619D02*
X140229047Y-147640000D01*
X140324285Y-147592380D01*
X140562380Y-147592380D01*
X140657619Y-147640000D01*
X140705238Y-147687619D01*
X140752857Y-147782857D01*
X140752857Y-147878095D01*
X140705238Y-148020952D01*
X140133809Y-148592380D01*
X140752857Y-148592380D01*
G04 #@! TO.C,J6*
X29811666Y-85812380D02*
X29811666Y-86526666D01*
X29764047Y-86669523D01*
X29668809Y-86764761D01*
X29525952Y-86812380D01*
X29430714Y-86812380D01*
X30716428Y-85812380D02*
X30525952Y-85812380D01*
X30430714Y-85860000D01*
X30383095Y-85907619D01*
X30287857Y-86050476D01*
X30240238Y-86240952D01*
X30240238Y-86621904D01*
X30287857Y-86717142D01*
X30335476Y-86764761D01*
X30430714Y-86812380D01*
X30621190Y-86812380D01*
X30716428Y-86764761D01*
X30764047Y-86717142D01*
X30811666Y-86621904D01*
X30811666Y-86383809D01*
X30764047Y-86288571D01*
X30716428Y-86240952D01*
X30621190Y-86193333D01*
X30430714Y-86193333D01*
X30335476Y-86240952D01*
X30287857Y-86288571D01*
X30240238Y-86383809D01*
G04 #@! TO.C,Q2*
X88017619Y-51995238D02*
X87970000Y-52090476D01*
X87874761Y-52185714D01*
X87731904Y-52328571D01*
X87684285Y-52423809D01*
X87684285Y-52519047D01*
X87922380Y-52471428D02*
X87874761Y-52566666D01*
X87779523Y-52661904D01*
X87589047Y-52709523D01*
X87255714Y-52709523D01*
X87065238Y-52661904D01*
X86970000Y-52566666D01*
X86922380Y-52471428D01*
X86922380Y-52280952D01*
X86970000Y-52185714D01*
X87065238Y-52090476D01*
X87255714Y-52042857D01*
X87589047Y-52042857D01*
X87779523Y-52090476D01*
X87874761Y-52185714D01*
X87922380Y-52280952D01*
X87922380Y-52471428D01*
X87017619Y-51661904D02*
X86970000Y-51614285D01*
X86922380Y-51519047D01*
X86922380Y-51280952D01*
X86970000Y-51185714D01*
X87017619Y-51138095D01*
X87112857Y-51090476D01*
X87208095Y-51090476D01*
X87350952Y-51138095D01*
X87922380Y-51709523D01*
X87922380Y-51090476D01*
G04 #@! TO.C,IC2*
D13*
X91544523Y-72139761D02*
X90274523Y-72139761D01*
X91423571Y-70809285D02*
X91484047Y-70869761D01*
X91544523Y-71051190D01*
X91544523Y-71172142D01*
X91484047Y-71353571D01*
X91363095Y-71474523D01*
X91242142Y-71535000D01*
X91000238Y-71595476D01*
X90818809Y-71595476D01*
X90576904Y-71535000D01*
X90455952Y-71474523D01*
X90335000Y-71353571D01*
X90274523Y-71172142D01*
X90274523Y-71051190D01*
X90335000Y-70869761D01*
X90395476Y-70809285D01*
X90395476Y-70325476D02*
X90335000Y-70265000D01*
X90274523Y-70144047D01*
X90274523Y-69841666D01*
X90335000Y-69720714D01*
X90395476Y-69660238D01*
X90516428Y-69599761D01*
X90637380Y-69599761D01*
X90818809Y-69660238D01*
X91544523Y-70385952D01*
X91544523Y-69599761D01*
G04 #@! TO.C,J1*
D12*
X73429166Y-119277380D02*
X73429166Y-119991666D01*
X73381547Y-120134523D01*
X73286309Y-120229761D01*
X73143452Y-120277380D01*
X73048214Y-120277380D01*
X74429166Y-120277380D02*
X73857738Y-120277380D01*
X74143452Y-120277380D02*
X74143452Y-119277380D01*
X74048214Y-119420238D01*
X73952976Y-119515476D01*
X73857738Y-119563095D01*
G04 #@! TO.C,R1*
X107572380Y-42066666D02*
X107096190Y-42400000D01*
X107572380Y-42638095D02*
X106572380Y-42638095D01*
X106572380Y-42257142D01*
X106620000Y-42161904D01*
X106667619Y-42114285D01*
X106762857Y-42066666D01*
X106905714Y-42066666D01*
X107000952Y-42114285D01*
X107048571Y-42161904D01*
X107096190Y-42257142D01*
X107096190Y-42638095D01*
X107572380Y-41114285D02*
X107572380Y-41685714D01*
X107572380Y-41400000D02*
X106572380Y-41400000D01*
X106715238Y-41495238D01*
X106810476Y-41590476D01*
X106858095Y-41685714D01*
G04 #@! TO.C,Q1*
X93017619Y-129995238D02*
X92970000Y-130090476D01*
X92874761Y-130185714D01*
X92731904Y-130328571D01*
X92684285Y-130423809D01*
X92684285Y-130519047D01*
X92922380Y-130471428D02*
X92874761Y-130566666D01*
X92779523Y-130661904D01*
X92589047Y-130709523D01*
X92255714Y-130709523D01*
X92065238Y-130661904D01*
X91970000Y-130566666D01*
X91922380Y-130471428D01*
X91922380Y-130280952D01*
X91970000Y-130185714D01*
X92065238Y-130090476D01*
X92255714Y-130042857D01*
X92589047Y-130042857D01*
X92779523Y-130090476D01*
X92874761Y-130185714D01*
X92922380Y-130280952D01*
X92922380Y-130471428D01*
X92922380Y-129090476D02*
X92922380Y-129661904D01*
X92922380Y-129376190D02*
X91922380Y-129376190D01*
X92065238Y-129471428D01*
X92160476Y-129566666D01*
X92208095Y-129661904D01*
G04 #@! TO.C,J3*
X29811666Y-76812380D02*
X29811666Y-77526666D01*
X29764047Y-77669523D01*
X29668809Y-77764761D01*
X29525952Y-77812380D01*
X29430714Y-77812380D01*
X30192619Y-76812380D02*
X30811666Y-76812380D01*
X30478333Y-77193333D01*
X30621190Y-77193333D01*
X30716428Y-77240952D01*
X30764047Y-77288571D01*
X30811666Y-77383809D01*
X30811666Y-77621904D01*
X30764047Y-77717142D01*
X30716428Y-77764761D01*
X30621190Y-77812380D01*
X30335476Y-77812380D01*
X30240238Y-77764761D01*
X30192619Y-77717142D01*
G04 #@! TO.C,J2*
X74904166Y-58627380D02*
X74904166Y-59341666D01*
X74856547Y-59484523D01*
X74761309Y-59579761D01*
X74618452Y-59627380D01*
X74523214Y-59627380D01*
X75332738Y-58722619D02*
X75380357Y-58675000D01*
X75475595Y-58627380D01*
X75713690Y-58627380D01*
X75808928Y-58675000D01*
X75856547Y-58722619D01*
X75904166Y-58817857D01*
X75904166Y-58913095D01*
X75856547Y-59055952D01*
X75285119Y-59627380D01*
X75904166Y-59627380D01*
G04 #@! TO.C,J4*
X31874166Y-102177380D02*
X31874166Y-102891666D01*
X31826547Y-103034523D01*
X31731309Y-103129761D01*
X31588452Y-103177380D01*
X31493214Y-103177380D01*
X32778928Y-102510714D02*
X32778928Y-103177380D01*
X32540833Y-102129761D02*
X32302738Y-102844047D01*
X32921785Y-102844047D01*
G04 #@! TO.C,J5*
X29811666Y-94812380D02*
X29811666Y-95526666D01*
X29764047Y-95669523D01*
X29668809Y-95764761D01*
X29525952Y-95812380D01*
X29430714Y-95812380D01*
X30764047Y-94812380D02*
X30287857Y-94812380D01*
X30240238Y-95288571D01*
X30287857Y-95240952D01*
X30383095Y-95193333D01*
X30621190Y-95193333D01*
X30716428Y-95240952D01*
X30764047Y-95288571D01*
X30811666Y-95383809D01*
X30811666Y-95621904D01*
X30764047Y-95717142D01*
X30716428Y-95764761D01*
X30621190Y-95812380D01*
X30383095Y-95812380D01*
X30287857Y-95764761D01*
X30240238Y-95717142D01*
G04 #@! TO.C,IC1*
D13*
X91619523Y-103514761D02*
X90349523Y-103514761D01*
X91498571Y-102184285D02*
X91559047Y-102244761D01*
X91619523Y-102426190D01*
X91619523Y-102547142D01*
X91559047Y-102728571D01*
X91438095Y-102849523D01*
X91317142Y-102910000D01*
X91075238Y-102970476D01*
X90893809Y-102970476D01*
X90651904Y-102910000D01*
X90530952Y-102849523D01*
X90410000Y-102728571D01*
X90349523Y-102547142D01*
X90349523Y-102426190D01*
X90410000Y-102244761D01*
X90470476Y-102184285D01*
X91619523Y-100974761D02*
X91619523Y-101700476D01*
X91619523Y-101337619D02*
X90349523Y-101337619D01*
X90530952Y-101458571D01*
X90651904Y-101579523D01*
X90712380Y-101700476D01*
G04 #@! TO.C,R6*
D12*
X116072380Y-147091666D02*
X115596190Y-147425000D01*
X116072380Y-147663095D02*
X115072380Y-147663095D01*
X115072380Y-147282142D01*
X115120000Y-147186904D01*
X115167619Y-147139285D01*
X115262857Y-147091666D01*
X115405714Y-147091666D01*
X115500952Y-147139285D01*
X115548571Y-147186904D01*
X115596190Y-147282142D01*
X115596190Y-147663095D01*
X115072380Y-146234523D02*
X115072380Y-146425000D01*
X115120000Y-146520238D01*
X115167619Y-146567857D01*
X115310476Y-146663095D01*
X115500952Y-146710714D01*
X115881904Y-146710714D01*
X115977142Y-146663095D01*
X116024761Y-146615476D01*
X116072380Y-146520238D01*
X116072380Y-146329761D01*
X116024761Y-146234523D01*
X115977142Y-146186904D01*
X115881904Y-146139285D01*
X115643809Y-146139285D01*
X115548571Y-146186904D01*
X115500952Y-146234523D01*
X115453333Y-146329761D01*
X115453333Y-146520238D01*
X115500952Y-146615476D01*
X115548571Y-146663095D01*
X115643809Y-146710714D01*
G04 #@! TO.C,R16*
X90102380Y-144617857D02*
X89626190Y-144951190D01*
X90102380Y-145189285D02*
X89102380Y-145189285D01*
X89102380Y-144808333D01*
X89150000Y-144713095D01*
X89197619Y-144665476D01*
X89292857Y-144617857D01*
X89435714Y-144617857D01*
X89530952Y-144665476D01*
X89578571Y-144713095D01*
X89626190Y-144808333D01*
X89626190Y-145189285D01*
X90102380Y-143665476D02*
X90102380Y-144236904D01*
X90102380Y-143951190D02*
X89102380Y-143951190D01*
X89245238Y-144046428D01*
X89340476Y-144141666D01*
X89388095Y-144236904D01*
X89102380Y-142808333D02*
X89102380Y-142998809D01*
X89150000Y-143094047D01*
X89197619Y-143141666D01*
X89340476Y-143236904D01*
X89530952Y-143284523D01*
X89911904Y-143284523D01*
X90007142Y-143236904D01*
X90054761Y-143189285D01*
X90102380Y-143094047D01*
X90102380Y-142903571D01*
X90054761Y-142808333D01*
X90007142Y-142760714D01*
X89911904Y-142713095D01*
X89673809Y-142713095D01*
X89578571Y-142760714D01*
X89530952Y-142808333D01*
X89483333Y-142903571D01*
X89483333Y-143094047D01*
X89530952Y-143189285D01*
X89578571Y-143236904D01*
X89673809Y-143284523D01*
G04 #@! TO.C,R15*
X85802380Y-35617857D02*
X85326190Y-35951190D01*
X85802380Y-36189285D02*
X84802380Y-36189285D01*
X84802380Y-35808333D01*
X84850000Y-35713095D01*
X84897619Y-35665476D01*
X84992857Y-35617857D01*
X85135714Y-35617857D01*
X85230952Y-35665476D01*
X85278571Y-35713095D01*
X85326190Y-35808333D01*
X85326190Y-36189285D01*
X85802380Y-34665476D02*
X85802380Y-35236904D01*
X85802380Y-34951190D02*
X84802380Y-34951190D01*
X84945238Y-35046428D01*
X85040476Y-35141666D01*
X85088095Y-35236904D01*
X84802380Y-33760714D02*
X84802380Y-34236904D01*
X85278571Y-34284523D01*
X85230952Y-34236904D01*
X85183333Y-34141666D01*
X85183333Y-33903571D01*
X85230952Y-33808333D01*
X85278571Y-33760714D01*
X85373809Y-33713095D01*
X85611904Y-33713095D01*
X85707142Y-33760714D01*
X85754761Y-33808333D01*
X85802380Y-33903571D01*
X85802380Y-34141666D01*
X85754761Y-34236904D01*
X85707142Y-34284523D01*
G04 #@! TO.C,R2*
X106772380Y-139091666D02*
X106296190Y-139425000D01*
X106772380Y-139663095D02*
X105772380Y-139663095D01*
X105772380Y-139282142D01*
X105820000Y-139186904D01*
X105867619Y-139139285D01*
X105962857Y-139091666D01*
X106105714Y-139091666D01*
X106200952Y-139139285D01*
X106248571Y-139186904D01*
X106296190Y-139282142D01*
X106296190Y-139663095D01*
X105867619Y-138710714D02*
X105820000Y-138663095D01*
X105772380Y-138567857D01*
X105772380Y-138329761D01*
X105820000Y-138234523D01*
X105867619Y-138186904D01*
X105962857Y-138139285D01*
X106058095Y-138139285D01*
X106200952Y-138186904D01*
X106772380Y-138758333D01*
X106772380Y-138139285D01*
G04 #@! TO.C,R17*
X41227142Y-85702380D02*
X40893809Y-85226190D01*
X40655714Y-85702380D02*
X40655714Y-84702380D01*
X41036666Y-84702380D01*
X41131904Y-84750000D01*
X41179523Y-84797619D01*
X41227142Y-84892857D01*
X41227142Y-85035714D01*
X41179523Y-85130952D01*
X41131904Y-85178571D01*
X41036666Y-85226190D01*
X40655714Y-85226190D01*
X42179523Y-85702380D02*
X41608095Y-85702380D01*
X41893809Y-85702380D02*
X41893809Y-84702380D01*
X41798571Y-84845238D01*
X41703333Y-84940476D01*
X41608095Y-84988095D01*
X42512857Y-84702380D02*
X43179523Y-84702380D01*
X42750952Y-85702380D01*
G04 #@! TO.C,R8*
X94802380Y-139141666D02*
X94326190Y-139475000D01*
X94802380Y-139713095D02*
X93802380Y-139713095D01*
X93802380Y-139332142D01*
X93850000Y-139236904D01*
X93897619Y-139189285D01*
X93992857Y-139141666D01*
X94135714Y-139141666D01*
X94230952Y-139189285D01*
X94278571Y-139236904D01*
X94326190Y-139332142D01*
X94326190Y-139713095D01*
X94230952Y-138570238D02*
X94183333Y-138665476D01*
X94135714Y-138713095D01*
X94040476Y-138760714D01*
X93992857Y-138760714D01*
X93897619Y-138713095D01*
X93850000Y-138665476D01*
X93802380Y-138570238D01*
X93802380Y-138379761D01*
X93850000Y-138284523D01*
X93897619Y-138236904D01*
X93992857Y-138189285D01*
X94040476Y-138189285D01*
X94135714Y-138236904D01*
X94183333Y-138284523D01*
X94230952Y-138379761D01*
X94230952Y-138570238D01*
X94278571Y-138665476D01*
X94326190Y-138713095D01*
X94421428Y-138760714D01*
X94611904Y-138760714D01*
X94707142Y-138713095D01*
X94754761Y-138665476D01*
X94802380Y-138570238D01*
X94802380Y-138379761D01*
X94754761Y-138284523D01*
X94707142Y-138236904D01*
X94611904Y-138189285D01*
X94421428Y-138189285D01*
X94326190Y-138236904D01*
X94278571Y-138284523D01*
X94230952Y-138379761D01*
G04 #@! TO.C,R18*
X41227142Y-90702380D02*
X40893809Y-90226190D01*
X40655714Y-90702380D02*
X40655714Y-89702380D01*
X41036666Y-89702380D01*
X41131904Y-89750000D01*
X41179523Y-89797619D01*
X41227142Y-89892857D01*
X41227142Y-90035714D01*
X41179523Y-90130952D01*
X41131904Y-90178571D01*
X41036666Y-90226190D01*
X40655714Y-90226190D01*
X42179523Y-90702380D02*
X41608095Y-90702380D01*
X41893809Y-90702380D02*
X41893809Y-89702380D01*
X41798571Y-89845238D01*
X41703333Y-89940476D01*
X41608095Y-89988095D01*
X42750952Y-90130952D02*
X42655714Y-90083333D01*
X42608095Y-90035714D01*
X42560476Y-89940476D01*
X42560476Y-89892857D01*
X42608095Y-89797619D01*
X42655714Y-89750000D01*
X42750952Y-89702380D01*
X42941428Y-89702380D01*
X43036666Y-89750000D01*
X43084285Y-89797619D01*
X43131904Y-89892857D01*
X43131904Y-89940476D01*
X43084285Y-90035714D01*
X43036666Y-90083333D01*
X42941428Y-90130952D01*
X42750952Y-90130952D01*
X42655714Y-90178571D01*
X42608095Y-90226190D01*
X42560476Y-90321428D01*
X42560476Y-90511904D01*
X42608095Y-90607142D01*
X42655714Y-90654761D01*
X42750952Y-90702380D01*
X42941428Y-90702380D01*
X43036666Y-90654761D01*
X43084285Y-90607142D01*
X43131904Y-90511904D01*
X43131904Y-90321428D01*
X43084285Y-90226190D01*
X43036666Y-90178571D01*
X42941428Y-90130952D01*
G04 #@! TO.C,R19*
X41227142Y-95702380D02*
X40893809Y-95226190D01*
X40655714Y-95702380D02*
X40655714Y-94702380D01*
X41036666Y-94702380D01*
X41131904Y-94750000D01*
X41179523Y-94797619D01*
X41227142Y-94892857D01*
X41227142Y-95035714D01*
X41179523Y-95130952D01*
X41131904Y-95178571D01*
X41036666Y-95226190D01*
X40655714Y-95226190D01*
X42179523Y-95702380D02*
X41608095Y-95702380D01*
X41893809Y-95702380D02*
X41893809Y-94702380D01*
X41798571Y-94845238D01*
X41703333Y-94940476D01*
X41608095Y-94988095D01*
X42655714Y-95702380D02*
X42846190Y-95702380D01*
X42941428Y-95654761D01*
X42989047Y-95607142D01*
X43084285Y-95464285D01*
X43131904Y-95273809D01*
X43131904Y-94892857D01*
X43084285Y-94797619D01*
X43036666Y-94750000D01*
X42941428Y-94702380D01*
X42750952Y-94702380D01*
X42655714Y-94750000D01*
X42608095Y-94797619D01*
X42560476Y-94892857D01*
X42560476Y-95130952D01*
X42608095Y-95226190D01*
X42655714Y-95273809D01*
X42750952Y-95321428D01*
X42941428Y-95321428D01*
X43036666Y-95273809D01*
X43084285Y-95226190D01*
X43131904Y-95130952D01*
G04 #@! TO.C,R14*
X82802380Y-139542857D02*
X82326190Y-139876190D01*
X82802380Y-140114285D02*
X81802380Y-140114285D01*
X81802380Y-139733333D01*
X81850000Y-139638095D01*
X81897619Y-139590476D01*
X81992857Y-139542857D01*
X82135714Y-139542857D01*
X82230952Y-139590476D01*
X82278571Y-139638095D01*
X82326190Y-139733333D01*
X82326190Y-140114285D01*
X82802380Y-138590476D02*
X82802380Y-139161904D01*
X82802380Y-138876190D02*
X81802380Y-138876190D01*
X81945238Y-138971428D01*
X82040476Y-139066666D01*
X82088095Y-139161904D01*
X82135714Y-137733333D02*
X82802380Y-137733333D01*
X81754761Y-137971428D02*
X82469047Y-138209523D01*
X82469047Y-137590476D01*
G04 #@! TO.C,R3*
X119272380Y-32971666D02*
X118796190Y-33305000D01*
X119272380Y-33543095D02*
X118272380Y-33543095D01*
X118272380Y-33162142D01*
X118320000Y-33066904D01*
X118367619Y-33019285D01*
X118462857Y-32971666D01*
X118605714Y-32971666D01*
X118700952Y-33019285D01*
X118748571Y-33066904D01*
X118796190Y-33162142D01*
X118796190Y-33543095D01*
X118272380Y-32638333D02*
X118272380Y-32019285D01*
X118653333Y-32352619D01*
X118653333Y-32209761D01*
X118700952Y-32114523D01*
X118748571Y-32066904D01*
X118843809Y-32019285D01*
X119081904Y-32019285D01*
X119177142Y-32066904D01*
X119224761Y-32114523D01*
X119272380Y-32209761D01*
X119272380Y-32495476D01*
X119224761Y-32590714D01*
X119177142Y-32638333D01*
G04 #@! TO.C,R9*
X108802380Y-32971666D02*
X108326190Y-33305000D01*
X108802380Y-33543095D02*
X107802380Y-33543095D01*
X107802380Y-33162142D01*
X107850000Y-33066904D01*
X107897619Y-33019285D01*
X107992857Y-32971666D01*
X108135714Y-32971666D01*
X108230952Y-33019285D01*
X108278571Y-33066904D01*
X108326190Y-33162142D01*
X108326190Y-33543095D01*
X108802380Y-32495476D02*
X108802380Y-32305000D01*
X108754761Y-32209761D01*
X108707142Y-32162142D01*
X108564285Y-32066904D01*
X108373809Y-32019285D01*
X107992857Y-32019285D01*
X107897619Y-32066904D01*
X107850000Y-32114523D01*
X107802380Y-32209761D01*
X107802380Y-32400238D01*
X107850000Y-32495476D01*
X107897619Y-32543095D01*
X107992857Y-32590714D01*
X108230952Y-32590714D01*
X108326190Y-32543095D01*
X108373809Y-32495476D01*
X108421428Y-32400238D01*
X108421428Y-32209761D01*
X108373809Y-32114523D01*
X108326190Y-32066904D01*
X108230952Y-32019285D01*
G04 #@! TO.C,R10*
X111102380Y-147617857D02*
X110626190Y-147951190D01*
X111102380Y-148189285D02*
X110102380Y-148189285D01*
X110102380Y-147808333D01*
X110150000Y-147713095D01*
X110197619Y-147665476D01*
X110292857Y-147617857D01*
X110435714Y-147617857D01*
X110530952Y-147665476D01*
X110578571Y-147713095D01*
X110626190Y-147808333D01*
X110626190Y-148189285D01*
X111102380Y-146665476D02*
X111102380Y-147236904D01*
X111102380Y-146951190D02*
X110102380Y-146951190D01*
X110245238Y-147046428D01*
X110340476Y-147141666D01*
X110388095Y-147236904D01*
X110102380Y-146046428D02*
X110102380Y-145951190D01*
X110150000Y-145855952D01*
X110197619Y-145808333D01*
X110292857Y-145760714D01*
X110483333Y-145713095D01*
X110721428Y-145713095D01*
X110911904Y-145760714D01*
X111007142Y-145808333D01*
X111054761Y-145855952D01*
X111102380Y-145951190D01*
X111102380Y-146046428D01*
X111054761Y-146141666D01*
X111007142Y-146189285D01*
X110911904Y-146236904D01*
X110721428Y-146284523D01*
X110483333Y-146284523D01*
X110292857Y-146236904D01*
X110197619Y-146189285D01*
X110150000Y-146141666D01*
X110102380Y-146046428D01*
G04 #@! TO.C,R12*
X94102380Y-144617857D02*
X93626190Y-144951190D01*
X94102380Y-145189285D02*
X93102380Y-145189285D01*
X93102380Y-144808333D01*
X93150000Y-144713095D01*
X93197619Y-144665476D01*
X93292857Y-144617857D01*
X93435714Y-144617857D01*
X93530952Y-144665476D01*
X93578571Y-144713095D01*
X93626190Y-144808333D01*
X93626190Y-145189285D01*
X94102380Y-143665476D02*
X94102380Y-144236904D01*
X94102380Y-143951190D02*
X93102380Y-143951190D01*
X93245238Y-144046428D01*
X93340476Y-144141666D01*
X93388095Y-144236904D01*
X93197619Y-143284523D02*
X93150000Y-143236904D01*
X93102380Y-143141666D01*
X93102380Y-142903571D01*
X93150000Y-142808333D01*
X93197619Y-142760714D01*
X93292857Y-142713095D01*
X93388095Y-142713095D01*
X93530952Y-142760714D01*
X94102380Y-143332142D01*
X94102380Y-142713095D01*
G04 #@! TO.C,R13*
X86102380Y-42517857D02*
X85626190Y-42851190D01*
X86102380Y-43089285D02*
X85102380Y-43089285D01*
X85102380Y-42708333D01*
X85150000Y-42613095D01*
X85197619Y-42565476D01*
X85292857Y-42517857D01*
X85435714Y-42517857D01*
X85530952Y-42565476D01*
X85578571Y-42613095D01*
X85626190Y-42708333D01*
X85626190Y-43089285D01*
X86102380Y-41565476D02*
X86102380Y-42136904D01*
X86102380Y-41851190D02*
X85102380Y-41851190D01*
X85245238Y-41946428D01*
X85340476Y-42041666D01*
X85388095Y-42136904D01*
X85102380Y-41232142D02*
X85102380Y-40613095D01*
X85483333Y-40946428D01*
X85483333Y-40803571D01*
X85530952Y-40708333D01*
X85578571Y-40660714D01*
X85673809Y-40613095D01*
X85911904Y-40613095D01*
X86007142Y-40660714D01*
X86054761Y-40708333D01*
X86102380Y-40803571D01*
X86102380Y-41089285D01*
X86054761Y-41184523D01*
X86007142Y-41232142D01*
G04 #@! TO.C,R4*
X122072380Y-147066666D02*
X121596190Y-147400000D01*
X122072380Y-147638095D02*
X121072380Y-147638095D01*
X121072380Y-147257142D01*
X121120000Y-147161904D01*
X121167619Y-147114285D01*
X121262857Y-147066666D01*
X121405714Y-147066666D01*
X121500952Y-147114285D01*
X121548571Y-147161904D01*
X121596190Y-147257142D01*
X121596190Y-147638095D01*
X121405714Y-146209523D02*
X122072380Y-146209523D01*
X121024761Y-146447619D02*
X121739047Y-146685714D01*
X121739047Y-146066666D01*
G04 #@! TO.C,R7*
X97572380Y-42066666D02*
X97096190Y-42400000D01*
X97572380Y-42638095D02*
X96572380Y-42638095D01*
X96572380Y-42257142D01*
X96620000Y-42161904D01*
X96667619Y-42114285D01*
X96762857Y-42066666D01*
X96905714Y-42066666D01*
X97000952Y-42114285D01*
X97048571Y-42161904D01*
X97096190Y-42257142D01*
X97096190Y-42638095D01*
X96572380Y-41733333D02*
X96572380Y-41066666D01*
X97572380Y-41495238D01*
G04 #@! TO.C,R11*
X91802380Y-35667857D02*
X91326190Y-36001190D01*
X91802380Y-36239285D02*
X90802380Y-36239285D01*
X90802380Y-35858333D01*
X90850000Y-35763095D01*
X90897619Y-35715476D01*
X90992857Y-35667857D01*
X91135714Y-35667857D01*
X91230952Y-35715476D01*
X91278571Y-35763095D01*
X91326190Y-35858333D01*
X91326190Y-36239285D01*
X91802380Y-34715476D02*
X91802380Y-35286904D01*
X91802380Y-35001190D02*
X90802380Y-35001190D01*
X90945238Y-35096428D01*
X91040476Y-35191666D01*
X91088095Y-35286904D01*
X91802380Y-33763095D02*
X91802380Y-34334523D01*
X91802380Y-34048809D02*
X90802380Y-34048809D01*
X90945238Y-34144047D01*
X91040476Y-34239285D01*
X91088095Y-34334523D01*
G04 #@! TO.C,R5*
X113722380Y-32996666D02*
X113246190Y-33330000D01*
X113722380Y-33568095D02*
X112722380Y-33568095D01*
X112722380Y-33187142D01*
X112770000Y-33091904D01*
X112817619Y-33044285D01*
X112912857Y-32996666D01*
X113055714Y-32996666D01*
X113150952Y-33044285D01*
X113198571Y-33091904D01*
X113246190Y-33187142D01*
X113246190Y-33568095D01*
X112722380Y-32091904D02*
X112722380Y-32568095D01*
X113198571Y-32615714D01*
X113150952Y-32568095D01*
X113103333Y-32472857D01*
X113103333Y-32234761D01*
X113150952Y-32139523D01*
X113198571Y-32091904D01*
X113293809Y-32044285D01*
X113531904Y-32044285D01*
X113627142Y-32091904D01*
X113674761Y-32139523D01*
X113722380Y-32234761D01*
X113722380Y-32472857D01*
X113674761Y-32568095D01*
X113627142Y-32615714D01*
G04 #@! TO.C,REF21*
X75976190Y-31252380D02*
X75642857Y-30776190D01*
X75404761Y-31252380D02*
X75404761Y-30252380D01*
X75785714Y-30252380D01*
X75880952Y-30300000D01*
X75928571Y-30347619D01*
X75976190Y-30442857D01*
X75976190Y-30585714D01*
X75928571Y-30680952D01*
X75880952Y-30728571D01*
X75785714Y-30776190D01*
X75404761Y-30776190D01*
X76404761Y-30728571D02*
X76738095Y-30728571D01*
X76880952Y-31252380D02*
X76404761Y-31252380D01*
X76404761Y-30252380D01*
X76880952Y-30252380D01*
X77642857Y-30728571D02*
X77309523Y-30728571D01*
X77309523Y-31252380D02*
X77309523Y-30252380D01*
X77785714Y-30252380D01*
X78119047Y-30347619D02*
X78166666Y-30300000D01*
X78261904Y-30252380D01*
X78500000Y-30252380D01*
X78595238Y-30300000D01*
X78642857Y-30347619D01*
X78690476Y-30442857D01*
X78690476Y-30538095D01*
X78642857Y-30680952D01*
X78071428Y-31252380D01*
X78690476Y-31252380D01*
X79642857Y-31252380D02*
X79071428Y-31252380D01*
X79357142Y-31252380D02*
X79357142Y-30252380D01*
X79261904Y-30395238D01*
X79166666Y-30490476D01*
X79071428Y-30538095D01*
G04 #@! TO.C,REF22*
X100976190Y-31252380D02*
X100642857Y-30776190D01*
X100404761Y-31252380D02*
X100404761Y-30252380D01*
X100785714Y-30252380D01*
X100880952Y-30300000D01*
X100928571Y-30347619D01*
X100976190Y-30442857D01*
X100976190Y-30585714D01*
X100928571Y-30680952D01*
X100880952Y-30728571D01*
X100785714Y-30776190D01*
X100404761Y-30776190D01*
X101404761Y-30728571D02*
X101738095Y-30728571D01*
X101880952Y-31252380D02*
X101404761Y-31252380D01*
X101404761Y-30252380D01*
X101880952Y-30252380D01*
X102642857Y-30728571D02*
X102309523Y-30728571D01*
X102309523Y-31252380D02*
X102309523Y-30252380D01*
X102785714Y-30252380D01*
X103119047Y-30347619D02*
X103166666Y-30300000D01*
X103261904Y-30252380D01*
X103500000Y-30252380D01*
X103595238Y-30300000D01*
X103642857Y-30347619D01*
X103690476Y-30442857D01*
X103690476Y-30538095D01*
X103642857Y-30680952D01*
X103071428Y-31252380D01*
X103690476Y-31252380D01*
X104071428Y-30347619D02*
X104119047Y-30300000D01*
X104214285Y-30252380D01*
X104452380Y-30252380D01*
X104547619Y-30300000D01*
X104595238Y-30347619D01*
X104642857Y-30442857D01*
X104642857Y-30538095D01*
X104595238Y-30680952D01*
X104023809Y-31252380D01*
X104642857Y-31252380D01*
G04 #@! TO.C,REF24*
X100976190Y-141252380D02*
X100642857Y-140776190D01*
X100404761Y-141252380D02*
X100404761Y-140252380D01*
X100785714Y-140252380D01*
X100880952Y-140300000D01*
X100928571Y-140347619D01*
X100976190Y-140442857D01*
X100976190Y-140585714D01*
X100928571Y-140680952D01*
X100880952Y-140728571D01*
X100785714Y-140776190D01*
X100404761Y-140776190D01*
X101404761Y-140728571D02*
X101738095Y-140728571D01*
X101880952Y-141252380D02*
X101404761Y-141252380D01*
X101404761Y-140252380D01*
X101880952Y-140252380D01*
X102642857Y-140728571D02*
X102309523Y-140728571D01*
X102309523Y-141252380D02*
X102309523Y-140252380D01*
X102785714Y-140252380D01*
X103119047Y-140347619D02*
X103166666Y-140300000D01*
X103261904Y-140252380D01*
X103500000Y-140252380D01*
X103595238Y-140300000D01*
X103642857Y-140347619D01*
X103690476Y-140442857D01*
X103690476Y-140538095D01*
X103642857Y-140680952D01*
X103071428Y-141252380D01*
X103690476Y-141252380D01*
X104547619Y-140585714D02*
X104547619Y-141252380D01*
X104309523Y-140204761D02*
X104071428Y-140919047D01*
X104690476Y-140919047D01*
G04 #@! TO.C,REF23*
X75976190Y-141252380D02*
X75642857Y-140776190D01*
X75404761Y-141252380D02*
X75404761Y-140252380D01*
X75785714Y-140252380D01*
X75880952Y-140300000D01*
X75928571Y-140347619D01*
X75976190Y-140442857D01*
X75976190Y-140585714D01*
X75928571Y-140680952D01*
X75880952Y-140728571D01*
X75785714Y-140776190D01*
X75404761Y-140776190D01*
X76404761Y-140728571D02*
X76738095Y-140728571D01*
X76880952Y-141252380D02*
X76404761Y-141252380D01*
X76404761Y-140252380D01*
X76880952Y-140252380D01*
X77642857Y-140728571D02*
X77309523Y-140728571D01*
X77309523Y-141252380D02*
X77309523Y-140252380D01*
X77785714Y-140252380D01*
X78119047Y-140347619D02*
X78166666Y-140300000D01*
X78261904Y-140252380D01*
X78500000Y-140252380D01*
X78595238Y-140300000D01*
X78642857Y-140347619D01*
X78690476Y-140442857D01*
X78690476Y-140538095D01*
X78642857Y-140680952D01*
X78071428Y-141252380D01*
X78690476Y-141252380D01*
X79023809Y-140252380D02*
X79642857Y-140252380D01*
X79309523Y-140633333D01*
X79452380Y-140633333D01*
X79547619Y-140680952D01*
X79595238Y-140728571D01*
X79642857Y-140823809D01*
X79642857Y-141061904D01*
X79595238Y-141157142D01*
X79547619Y-141204761D01*
X79452380Y-141252380D01*
X79166666Y-141252380D01*
X79071428Y-141204761D01*
X79023809Y-141157142D01*
G04 #@! TO.C,REF27*
X67436190Y-65802380D02*
X67102857Y-65326190D01*
X66864761Y-65802380D02*
X66864761Y-64802380D01*
X67245714Y-64802380D01*
X67340952Y-64850000D01*
X67388571Y-64897619D01*
X67436190Y-64992857D01*
X67436190Y-65135714D01*
X67388571Y-65230952D01*
X67340952Y-65278571D01*
X67245714Y-65326190D01*
X66864761Y-65326190D01*
X67864761Y-65278571D02*
X68198095Y-65278571D01*
X68340952Y-65802380D02*
X67864761Y-65802380D01*
X67864761Y-64802380D01*
X68340952Y-64802380D01*
X69102857Y-65278571D02*
X68769523Y-65278571D01*
X68769523Y-65802380D02*
X68769523Y-64802380D01*
X69245714Y-64802380D01*
X69579047Y-64897619D02*
X69626666Y-64850000D01*
X69721904Y-64802380D01*
X69960000Y-64802380D01*
X70055238Y-64850000D01*
X70102857Y-64897619D01*
X70150476Y-64992857D01*
X70150476Y-65088095D01*
X70102857Y-65230952D01*
X69531428Y-65802380D01*
X70150476Y-65802380D01*
X70483809Y-64802380D02*
X71150476Y-64802380D01*
X70721904Y-65802380D01*
G04 #@! TO.C,REF26*
X133476190Y-62622380D02*
X133142857Y-62146190D01*
X132904761Y-62622380D02*
X132904761Y-61622380D01*
X133285714Y-61622380D01*
X133380952Y-61670000D01*
X133428571Y-61717619D01*
X133476190Y-61812857D01*
X133476190Y-61955714D01*
X133428571Y-62050952D01*
X133380952Y-62098571D01*
X133285714Y-62146190D01*
X132904761Y-62146190D01*
X133904761Y-62098571D02*
X134238095Y-62098571D01*
X134380952Y-62622380D02*
X133904761Y-62622380D01*
X133904761Y-61622380D01*
X134380952Y-61622380D01*
X135142857Y-62098571D02*
X134809523Y-62098571D01*
X134809523Y-62622380D02*
X134809523Y-61622380D01*
X135285714Y-61622380D01*
X135619047Y-61717619D02*
X135666666Y-61670000D01*
X135761904Y-61622380D01*
X136000000Y-61622380D01*
X136095238Y-61670000D01*
X136142857Y-61717619D01*
X136190476Y-61812857D01*
X136190476Y-61908095D01*
X136142857Y-62050952D01*
X135571428Y-62622380D01*
X136190476Y-62622380D01*
X137047619Y-61622380D02*
X136857142Y-61622380D01*
X136761904Y-61670000D01*
X136714285Y-61717619D01*
X136619047Y-61860476D01*
X136571428Y-62050952D01*
X136571428Y-62431904D01*
X136619047Y-62527142D01*
X136666666Y-62574761D01*
X136761904Y-62622380D01*
X136952380Y-62622380D01*
X137047619Y-62574761D01*
X137095238Y-62527142D01*
X137142857Y-62431904D01*
X137142857Y-62193809D01*
X137095238Y-62098571D01*
X137047619Y-62050952D01*
X136952380Y-62003333D01*
X136761904Y-62003333D01*
X136666666Y-62050952D01*
X136619047Y-62098571D01*
X136571428Y-62193809D01*
G04 #@! TO.C,REF25*
X133476190Y-110882380D02*
X133142857Y-110406190D01*
X132904761Y-110882380D02*
X132904761Y-109882380D01*
X133285714Y-109882380D01*
X133380952Y-109930000D01*
X133428571Y-109977619D01*
X133476190Y-110072857D01*
X133476190Y-110215714D01*
X133428571Y-110310952D01*
X133380952Y-110358571D01*
X133285714Y-110406190D01*
X132904761Y-110406190D01*
X133904761Y-110358571D02*
X134238095Y-110358571D01*
X134380952Y-110882380D02*
X133904761Y-110882380D01*
X133904761Y-109882380D01*
X134380952Y-109882380D01*
X135142857Y-110358571D02*
X134809523Y-110358571D01*
X134809523Y-110882380D02*
X134809523Y-109882380D01*
X135285714Y-109882380D01*
X135619047Y-109977619D02*
X135666666Y-109930000D01*
X135761904Y-109882380D01*
X136000000Y-109882380D01*
X136095238Y-109930000D01*
X136142857Y-109977619D01*
X136190476Y-110072857D01*
X136190476Y-110168095D01*
X136142857Y-110310952D01*
X135571428Y-110882380D01*
X136190476Y-110882380D01*
X137095238Y-109882380D02*
X136619047Y-109882380D01*
X136571428Y-110358571D01*
X136619047Y-110310952D01*
X136714285Y-110263333D01*
X136952380Y-110263333D01*
X137047619Y-110310952D01*
X137095238Y-110358571D01*
X137142857Y-110453809D01*
X137142857Y-110691904D01*
X137095238Y-110787142D01*
X137047619Y-110834761D01*
X136952380Y-110882380D01*
X136714285Y-110882380D01*
X136619047Y-110834761D01*
X136571428Y-110787142D01*
G04 #@! TO.C,REF28*
X67436190Y-107702380D02*
X67102857Y-107226190D01*
X66864761Y-107702380D02*
X66864761Y-106702380D01*
X67245714Y-106702380D01*
X67340952Y-106750000D01*
X67388571Y-106797619D01*
X67436190Y-106892857D01*
X67436190Y-107035714D01*
X67388571Y-107130952D01*
X67340952Y-107178571D01*
X67245714Y-107226190D01*
X66864761Y-107226190D01*
X67864761Y-107178571D02*
X68198095Y-107178571D01*
X68340952Y-107702380D02*
X67864761Y-107702380D01*
X67864761Y-106702380D01*
X68340952Y-106702380D01*
X69102857Y-107178571D02*
X68769523Y-107178571D01*
X68769523Y-107702380D02*
X68769523Y-106702380D01*
X69245714Y-106702380D01*
X69579047Y-106797619D02*
X69626666Y-106750000D01*
X69721904Y-106702380D01*
X69960000Y-106702380D01*
X70055238Y-106750000D01*
X70102857Y-106797619D01*
X70150476Y-106892857D01*
X70150476Y-106988095D01*
X70102857Y-107130952D01*
X69531428Y-107702380D01*
X70150476Y-107702380D01*
X70721904Y-107130952D02*
X70626666Y-107083333D01*
X70579047Y-107035714D01*
X70531428Y-106940476D01*
X70531428Y-106892857D01*
X70579047Y-106797619D01*
X70626666Y-106750000D01*
X70721904Y-106702380D01*
X70912380Y-106702380D01*
X71007619Y-106750000D01*
X71055238Y-106797619D01*
X71102857Y-106892857D01*
X71102857Y-106940476D01*
X71055238Y-107035714D01*
X71007619Y-107083333D01*
X70912380Y-107130952D01*
X70721904Y-107130952D01*
X70626666Y-107178571D01*
X70579047Y-107226190D01*
X70531428Y-107321428D01*
X70531428Y-107511904D01*
X70579047Y-107607142D01*
X70626666Y-107654761D01*
X70721904Y-107702380D01*
X70912380Y-107702380D01*
X71007619Y-107654761D01*
X71055238Y-107607142D01*
X71102857Y-107511904D01*
X71102857Y-107321428D01*
X71055238Y-107226190D01*
X71007619Y-107178571D01*
X70912380Y-107130952D01*
G04 #@! TD*
M02*
