M48
;DRILL file {KiCad (5.0.1)-rc2} date 13-Nov-18 07:48:11 PM
;FORMAT={-:-/ absolute / metric / decimal}
FMAT,2
METRIC,TZ
T1C0.400
T2C0.700
T3C0.800
%
G90
G05
M71
T1
X26.488Y-86.126
X36.354Y-84.629
X44.227Y-91.037
X65.21Y-42.941
X69.47Y-134.738
X75.1Y-71.577
X75.192Y-69.021
X80.1Y-101.388
X84.231Y-91.388
X86.212Y-68.286
X86.212Y-98.942
X87.032Y-53.567
X87.783Y-88.15
X87.783Y-104.075
X89.225Y-75.47
X89.492Y-103.633
X89.91Y-128.075
X90.307Y-65.669
X90.611Y-100.639
X91.008Y-71.762
X92.395Y-106.672
X92.586Y-66.511
X92.645Y-101.367
X92.952Y-72.483
X93.33Y-100.807
X93.98Y-107.334
T2
X92.47Y-24.9
X92.47Y-26.7
X96.47Y-24.9
X96.47Y-26.7
X83.47Y-153.1
X83.47Y-154.9
X87.47Y-153.1
X87.47Y-154.9
X110.47Y-24.9
X110.47Y-26.7
X114.47Y-24.9
X114.47Y-26.7
X119.47Y-24.9
X119.47Y-26.7
X123.47Y-24.9
X123.47Y-26.7
X74.47Y-24.9
X74.47Y-26.7
X78.47Y-24.9
X78.47Y-26.7
X110.47Y-153.1
X110.47Y-154.9
X114.47Y-153.1
X114.47Y-154.9
X92.47Y-153.1
X92.47Y-154.9
X96.47Y-153.1
X96.47Y-154.9
X65.47Y-152.9
X65.47Y-154.7
X69.47Y-152.9
X69.47Y-154.7
X56.47Y-153.1
X56.47Y-154.9
X60.47Y-153.1
X60.47Y-154.9
X119.47Y-153.1
X119.47Y-154.9
X123.47Y-153.1
X123.47Y-154.9
X101.47Y-153.1
X101.47Y-154.9
X105.47Y-153.1
X105.47Y-154.9
X74.47Y-153.1
X74.47Y-154.9
X78.47Y-153.1
X78.47Y-154.9
X83.47Y-24.9
X83.47Y-26.7
X87.47Y-24.9
X87.47Y-26.7
X56.47Y-24.9
X56.47Y-26.7
X60.47Y-24.9
X60.47Y-26.7
X101.47Y-24.9
X101.47Y-26.7
X105.47Y-24.9
X105.47Y-26.7
X65.47Y-24.9
X65.47Y-26.7
X69.47Y-24.9
X69.47Y-26.7
T3
X67.5Y-56.
X70.475Y-56.
X73.65Y-56.
X76.825Y-56.
X80.Y-56.
X26.97Y-88.9
X26.97Y-91.44
X30.145Y-88.9
X30.145Y-91.44
X33.32Y-88.9
X33.32Y-91.44
X69.Y-123.
X72.175Y-123.
X75.35Y-123.
X78.525Y-123.
X81.5Y-123.
X26.97Y-79.9
X26.97Y-82.44
X30.145Y-79.9
X30.145Y-82.44
X33.32Y-79.9
X33.32Y-82.44
X26.97Y-97.9
X26.97Y-100.44
X30.145Y-97.9
X30.145Y-100.44
X33.32Y-97.9
X33.32Y-100.44
X27.445Y-105.9
X30.62Y-105.9
X33.795Y-105.9
X36.97Y-105.9
T0
M30
